<svg width="353" height="263" viewBox="0 0 353 263" fill="none" xmlns="http://www.w3.org/2000/svg">
<path d="M0 101C1.10976 51.6158 41.625 12.2502 91.0207 12.562L143.63 12.8942L202.902 13.9102C220.965 14.2198 238.557 19.7282 253.571 29.7761L283 49.4709H95.4853C95.4853 49.4709 66.7949 48.9391 47.8078 54.9212C24.7091 62.1987 0 101 0 101V101Z" fill="url(#paint0_linear_7_19)"/>
<path d="M215 15C264.982 17.2214 303.989 59.0445 302.726 109.06L300.846 183.5V183.5C298.578 205.613 284.163 224.613 263.479 232.753L262.852 233L262.852 76.6315C262.852 76.6315 261.353 51.4406 251.155 38.9999C238.04 22.9999 215 15 215 15V15Z" fill="url(#paint1_linear_7_19)"/>
<path d="M300.5 172C309.578 219.207 273.405 263 225.333 263L161.442 263L93.8249 263C75.8992 263 58.3472 257.874 43.2385 248.228L5 223.812H200.828C200.828 223.812 238.655 223.257 257.971 214.081C281.469 202.918 300.5 172 300.5 172V172Z" fill="url(#paint2_linear_7_19)"/>
<path d="M51 260.5C22.0625 257.663 2.7045e-05 233.332 2.44031e-05 204.256L1.57126e-05 108.611C1.25111e-05 73.3764 31.0887 46.2393 66 51V51C66 51 50.5 61.5 46 68.5C41.5 75.5 39.8436 94.5 39.8436 94.5L39.8436 210.14C39.8436 210.14 43.0762 231.855 54.3746 244.604C68.9055 261 107 263 107 263L86.5 263L51 260.5V260.5Z" fill="url(#paint3_linear_7_19)"/>
<path d="M128.5 161.71L138.069 166.438L147.069 171.938L147.069 173.438L136.569 168.938L125 165.21L126.569 163.938C127.774 163.03 128 162.21 128.5 161.71Z" fill="#3F51B5"/>
<path d="M98.4257 171.448C98.2387 171.261 98.3106 170.942 98.5609 170.857C100.179 170.304 105.04 168.596 108.018 167.04C112.073 164.922 113.518 163.04 117.018 160.04C121.948 155.814 127.723 148.244 130.239 144.815C130.935 143.866 132.293 143.696 133.192 144.456L136.512 147.265C137.347 147.972 137.46 149.215 136.754 150.051C134.447 152.784 129.345 158.713 124.518 163.54C121.058 167 118.161 168.495 113.518 170.04C111.046 170.863 109.602 171.21 107.018 171.54C104.032 171.922 99.4727 171.611 98.6482 171.55C98.564 171.544 98.4853 171.507 98.4257 171.448Z" fill="#3338A0"/>
<mask id="path-7-outside-1_7_19" maskUnits="userSpaceOnUse" x="95" y="182" width="57" height="20" fill="black">
<rect fill="white" x="95" y="182" width="57" height="20"/>
<path d="M96.2017 201V182.818H102.558C103.825 182.818 104.869 183.037 105.692 183.475C106.515 183.907 107.127 184.49 107.53 185.224C107.932 185.952 108.134 186.76 108.134 187.648C108.134 188.429 107.994 189.074 107.716 189.583C107.444 190.092 107.083 190.495 106.633 190.79C106.189 191.086 105.707 191.305 105.186 191.447V191.625C105.742 191.661 106.302 191.856 106.864 192.211C107.426 192.566 107.897 193.075 108.276 193.738C108.654 194.401 108.844 195.212 108.844 196.17C108.844 197.082 108.637 197.902 108.222 198.63C107.808 199.358 107.154 199.935 106.26 200.361C105.367 200.787 104.204 201 102.771 201H96.2017ZM98.4034 199.047H102.771C104.21 199.047 105.23 198.769 105.834 198.212C106.444 197.65 106.749 196.969 106.749 196.17C106.749 195.555 106.592 194.987 106.278 194.466C105.964 193.939 105.518 193.519 104.938 193.205C104.357 192.886 103.671 192.726 102.878 192.726H98.4034V199.047ZM98.4034 190.808H102.487C103.15 190.808 103.748 190.678 104.281 190.418C104.819 190.157 105.245 189.79 105.559 189.317C105.879 188.843 106.038 188.287 106.038 187.648C106.038 186.849 105.76 186.171 105.204 185.615C104.647 185.052 103.766 184.771 102.558 184.771H98.4034V190.808ZM120.771 195.425V187.364H122.866V201H120.771V198.692H120.629C120.309 199.384 119.812 199.973 119.138 200.458C118.463 200.938 117.611 201.178 116.581 201.178C115.729 201.178 114.971 200.991 114.308 200.618C113.645 200.239 113.124 199.671 112.746 198.914C112.367 198.15 112.177 197.188 112.177 196.028V187.364H114.273V195.886C114.273 196.881 114.551 197.674 115.107 198.266C115.669 198.857 116.385 199.153 117.256 199.153C117.776 199.153 118.306 199.02 118.845 198.754C119.389 198.488 119.845 198.079 120.212 197.529C120.585 196.978 120.771 196.277 120.771 195.425ZM128.657 196.028L128.621 193.436H129.047L135.013 187.364H137.606L131.249 193.791H131.072L128.657 196.028ZM126.704 201V182.818H128.799V201H126.704ZM135.369 201L130.042 194.253L131.533 192.797L138.032 201H135.369ZM144.315 201.32C143.451 201.32 142.667 201.157 141.963 200.831C141.258 200.5 140.699 200.023 140.285 199.402C139.87 198.775 139.663 198.017 139.663 197.129C139.663 196.348 139.817 195.715 140.125 195.229C140.433 194.738 140.844 194.353 141.359 194.075C141.874 193.797 142.442 193.59 143.063 193.454C143.691 193.312 144.321 193.199 144.954 193.116C145.783 193.01 146.455 192.93 146.97 192.877C147.49 192.818 147.869 192.72 148.106 192.584C148.349 192.448 148.47 192.211 148.47 191.874V191.803C148.47 190.927 148.23 190.246 147.751 189.761C147.277 189.275 146.558 189.033 145.594 189.033C144.593 189.033 143.809 189.252 143.241 189.69C142.673 190.128 142.273 190.595 142.042 191.092L140.054 190.382C140.409 189.554 140.882 188.908 141.474 188.447C142.072 187.979 142.723 187.654 143.427 187.47C144.138 187.281 144.836 187.186 145.523 187.186C145.961 187.186 146.464 187.239 147.032 187.346C147.606 187.446 148.159 187.657 148.692 187.976C149.231 188.296 149.677 188.778 150.032 189.423C150.388 190.068 150.565 190.933 150.565 192.016V201H148.47V199.153H148.363C148.221 199.449 147.985 199.766 147.653 200.103C147.322 200.441 146.881 200.728 146.33 200.964C145.78 201.201 145.108 201.32 144.315 201.32ZM144.635 199.438C145.463 199.438 146.162 199.275 146.73 198.949C147.304 198.624 147.736 198.203 148.026 197.689C148.322 197.174 148.47 196.632 148.47 196.064V194.146C148.381 194.253 148.186 194.35 147.884 194.439C147.588 194.522 147.245 194.596 146.854 194.661C146.47 194.72 146.094 194.774 145.727 194.821C145.366 194.862 145.073 194.898 144.848 194.928C144.303 194.999 143.794 195.114 143.321 195.274C142.853 195.428 142.474 195.661 142.184 195.975C141.9 196.283 141.758 196.703 141.758 197.236C141.758 197.964 142.028 198.514 142.566 198.887C143.111 199.254 143.8 199.438 144.635 199.438Z"/>
</mask>
<path d="M96.2017 201V182.818H102.558C103.825 182.818 104.869 183.037 105.692 183.475C106.515 183.907 107.127 184.49 107.53 185.224C107.932 185.952 108.134 186.76 108.134 187.648C108.134 188.429 107.994 189.074 107.716 189.583C107.444 190.092 107.083 190.495 106.633 190.79C106.189 191.086 105.707 191.305 105.186 191.447V191.625C105.742 191.661 106.302 191.856 106.864 192.211C107.426 192.566 107.897 193.075 108.276 193.738C108.654 194.401 108.844 195.212 108.844 196.17C108.844 197.082 108.637 197.902 108.222 198.63C107.808 199.358 107.154 199.935 106.26 200.361C105.367 200.787 104.204 201 102.771 201H96.2017ZM98.4034 199.047H102.771C104.21 199.047 105.23 198.769 105.834 198.212C106.444 197.65 106.749 196.969 106.749 196.17C106.749 195.555 106.592 194.987 106.278 194.466C105.964 193.939 105.518 193.519 104.938 193.205C104.357 192.886 103.671 192.726 102.878 192.726H98.4034V199.047ZM98.4034 190.808H102.487C103.15 190.808 103.748 190.678 104.281 190.418C104.819 190.157 105.245 189.79 105.559 189.317C105.879 188.843 106.038 188.287 106.038 187.648C106.038 186.849 105.76 186.171 105.204 185.615C104.647 185.052 103.766 184.771 102.558 184.771H98.4034V190.808ZM120.771 195.425V187.364H122.866V201H120.771V198.692H120.629C120.309 199.384 119.812 199.973 119.138 200.458C118.463 200.938 117.611 201.178 116.581 201.178C115.729 201.178 114.971 200.991 114.308 200.618C113.645 200.239 113.124 199.671 112.746 198.914C112.367 198.15 112.177 197.188 112.177 196.028V187.364H114.273V195.886C114.273 196.881 114.551 197.674 115.107 198.266C115.669 198.857 116.385 199.153 117.256 199.153C117.776 199.153 118.306 199.02 118.845 198.754C119.389 198.488 119.845 198.079 120.212 197.529C120.585 196.978 120.771 196.277 120.771 195.425ZM128.657 196.028L128.621 193.436H129.047L135.013 187.364H137.606L131.249 193.791H131.072L128.657 196.028ZM126.704 201V182.818H128.799V201H126.704ZM135.369 201L130.042 194.253L131.533 192.797L138.032 201H135.369ZM144.315 201.32C143.451 201.32 142.667 201.157 141.963 200.831C141.258 200.5 140.699 200.023 140.285 199.402C139.87 198.775 139.663 198.017 139.663 197.129C139.663 196.348 139.817 195.715 140.125 195.229C140.433 194.738 140.844 194.353 141.359 194.075C141.874 193.797 142.442 193.59 143.063 193.454C143.691 193.312 144.321 193.199 144.954 193.116C145.783 193.01 146.455 192.93 146.97 192.877C147.49 192.818 147.869 192.72 148.106 192.584C148.349 192.448 148.47 192.211 148.47 191.874V191.803C148.47 190.927 148.23 190.246 147.751 189.761C147.277 189.275 146.558 189.033 145.594 189.033C144.593 189.033 143.809 189.252 143.241 189.69C142.673 190.128 142.273 190.595 142.042 191.092L140.054 190.382C140.409 189.554 140.882 188.908 141.474 188.447C142.072 187.979 142.723 187.654 143.427 187.47C144.138 187.281 144.836 187.186 145.523 187.186C145.961 187.186 146.464 187.239 147.032 187.346C147.606 187.446 148.159 187.657 148.692 187.976C149.231 188.296 149.677 188.778 150.032 189.423C150.388 190.068 150.565 190.933 150.565 192.016V201H148.47V199.153H148.363C148.221 199.449 147.985 199.766 147.653 200.103C147.322 200.441 146.881 200.728 146.33 200.964C145.78 201.201 145.108 201.32 144.315 201.32ZM144.635 199.438C145.463 199.438 146.162 199.275 146.73 198.949C147.304 198.624 147.736 198.203 148.026 197.689C148.322 197.174 148.47 196.632 148.47 196.064V194.146C148.381 194.253 148.186 194.35 147.884 194.439C147.588 194.522 147.245 194.596 146.854 194.661C146.47 194.72 146.094 194.774 145.727 194.821C145.366 194.862 145.073 194.898 144.848 194.928C144.303 194.999 143.794 195.114 143.321 195.274C142.853 195.428 142.474 195.661 142.184 195.975C141.9 196.283 141.758 196.703 141.758 197.236C141.758 197.964 142.028 198.514 142.566 198.887C143.111 199.254 143.8 199.438 144.635 199.438Z" fill="#3338A0"/>
<path d="M96.2017 201H95.7017V201.5H96.2017V201ZM96.2017 182.818V182.318H95.7017V182.818H96.2017ZM105.692 183.475L105.457 183.917L105.46 183.918L105.692 183.475ZM107.53 185.224L107.091 185.464L107.092 185.466L107.53 185.224ZM107.716 189.583L107.277 189.343L107.275 189.347L107.716 189.583ZM106.633 190.79L106.358 190.373L106.356 190.374L106.633 190.79ZM105.186 191.447L105.055 190.965L104.686 191.066V191.447H105.186ZM105.186 191.625H104.686V192.094L105.154 192.124L105.186 191.625ZM106.864 192.211L106.597 192.634L106.864 192.211ZM108.222 198.63L108.657 198.877L108.222 198.63ZM106.26 200.361L106.045 199.909L106.26 200.361ZM98.4034 199.047H97.9034V199.547H98.4034V199.047ZM105.834 198.212L106.173 198.58L106.173 198.58L105.834 198.212ZM106.278 194.466L105.848 194.722L105.85 194.724L106.278 194.466ZM104.938 193.205L104.696 193.643L104.7 193.645L104.938 193.205ZM98.4034 192.726V192.226H97.9034V192.726H98.4034ZM98.4034 190.808H97.9034V191.308H98.4034V190.808ZM104.281 190.418L104.063 189.967L104.061 189.968L104.281 190.418ZM105.559 189.317L105.145 189.037L105.142 189.041L105.559 189.317ZM105.204 185.615L104.848 185.966L104.85 185.968L105.204 185.615ZM98.4034 184.771V184.271H97.9034V184.771H98.4034ZM96.2017 201H96.7017V182.818H96.2017H95.7017V201H96.2017ZM96.2017 182.818V183.318H102.558V182.818V182.318H96.2017V182.818ZM102.558 182.818V183.318C103.771 183.318 104.728 183.528 105.457 183.916L105.692 183.475L105.927 183.034C105.011 182.546 103.879 182.318 102.558 182.318V182.818ZM105.692 183.475L105.46 183.918C106.205 184.309 106.741 184.826 107.091 185.464L107.53 185.224L107.968 184.984C107.513 184.154 106.824 183.505 105.925 183.032L105.692 183.475ZM107.53 185.224L107.092 185.466C107.451 186.115 107.634 186.839 107.634 187.648H108.134H108.634C108.634 186.681 108.414 185.789 107.967 184.982L107.53 185.224ZM108.134 187.648H107.634C107.634 188.373 107.504 188.929 107.278 189.343L107.716 189.583L108.155 189.823C108.485 189.219 108.634 188.485 108.634 187.648H108.134ZM107.716 189.583L107.275 189.347C107.04 189.788 106.734 190.126 106.358 190.373L106.633 190.79L106.908 191.208C107.432 190.863 107.848 190.396 108.157 189.819L107.716 189.583ZM106.633 190.79L106.356 190.374C105.957 190.64 105.524 190.837 105.055 190.965L105.186 191.447L105.318 191.93C105.89 191.774 106.421 191.533 106.911 191.207L106.633 190.79ZM105.186 191.447H104.686V191.625H105.186H105.686V191.447H105.186ZM105.186 191.625L105.154 192.124C105.612 192.153 106.092 192.315 106.597 192.634L106.864 192.211L107.131 191.788C106.512 191.397 105.873 191.168 105.218 191.126L105.186 191.625ZM106.864 192.211L106.597 192.634C107.08 192.939 107.497 193.384 107.841 193.986L108.276 193.738L108.71 193.49C108.296 192.767 107.772 192.193 107.131 191.788L106.864 192.211ZM108.276 193.738L107.841 193.986C108.167 194.556 108.344 195.277 108.344 196.17H108.844H109.344C109.344 195.147 109.141 194.245 108.71 193.49L108.276 193.738ZM108.844 196.17H108.344C108.344 197.003 108.155 197.736 107.788 198.382L108.222 198.63L108.657 198.877C109.118 198.067 109.344 197.161 109.344 196.17H108.844ZM108.222 198.63L107.788 198.382C107.433 199.006 106.864 199.519 106.045 199.909L106.26 200.361L106.475 200.812C107.444 200.35 108.183 199.709 108.657 198.877L108.222 198.63ZM106.26 200.361L106.045 199.909C105.242 200.293 104.16 200.5 102.771 200.5V201V201.5C104.247 201.5 105.491 201.281 106.475 200.812L106.26 200.361ZM102.771 201V200.5H96.2017V201V201.5H102.771V201ZM98.4034 199.047V199.547H102.771V199.047V198.547H98.4034V199.047ZM102.771 199.047V199.547C104.249 199.547 105.429 199.266 106.173 198.58L105.834 198.212L105.495 197.845C105.032 198.271 104.17 198.547 102.771 198.547V199.047ZM105.834 198.212L106.173 198.58C106.881 197.927 107.249 197.115 107.249 196.17H106.749H106.249C106.249 196.824 106.007 197.373 105.495 197.845L105.834 198.212ZM106.749 196.17H107.249C107.249 195.465 107.068 194.808 106.706 194.208L106.278 194.466L105.85 194.724C106.116 195.166 106.249 195.645 106.249 196.17H106.749ZM106.278 194.466L106.708 194.21C106.344 193.6 105.828 193.119 105.175 192.765L104.938 193.205L104.7 193.645C105.207 193.919 105.584 194.278 105.848 194.722L106.278 194.466ZM104.938 193.205L105.179 192.767C104.512 192.4 103.739 192.226 102.878 192.226V192.726V193.226C103.603 193.226 104.203 193.372 104.696 193.643L104.938 193.205ZM102.878 192.726V192.226H98.4034V192.726V193.226H102.878V192.726ZM98.4034 192.726H97.9034V199.047H98.4034H98.9034V192.726H98.4034ZM98.4034 190.808V191.308H102.487V190.808V190.308H98.4034V190.808ZM102.487 190.808V191.308C103.217 191.308 103.891 191.164 104.5 190.867L104.281 190.418L104.061 189.968C103.604 190.192 103.083 190.308 102.487 190.308V190.808ZM104.281 190.418L104.498 190.868C105.113 190.57 105.61 190.145 105.976 189.593L105.559 189.317L105.142 189.041C104.881 189.435 104.525 189.744 104.063 189.967L104.281 190.418ZM105.559 189.317L105.973 189.596C106.355 189.031 106.538 188.374 106.538 187.648H106.038H105.538C105.538 188.2 105.402 188.656 105.145 189.037L105.559 189.317ZM106.038 187.648H106.538C106.538 186.718 106.209 185.913 105.557 185.261L105.204 185.615L104.85 185.968C105.311 186.429 105.538 186.979 105.538 187.648H106.038ZM105.204 185.615L105.559 185.263C104.87 184.566 103.83 184.271 102.558 184.271V184.771V185.271C103.701 185.271 104.425 185.539 104.848 185.966L105.204 185.615ZM102.558 184.771V184.271H98.4034V184.771V185.271H102.558V184.771ZM98.4034 184.771H97.9034V190.808H98.4034H98.9034V184.771H98.4034ZM120.771 187.364V186.864H120.271V187.364H120.771ZM122.866 187.364H123.366V186.864H122.866V187.364ZM122.866 201V201.5H123.366V201H122.866ZM120.771 201H120.271V201.5H120.771V201ZM120.771 198.692H121.271V198.192H120.771V198.692ZM120.629 198.692V198.192H120.309L120.175 198.482L120.629 198.692ZM119.138 200.458L119.427 200.866L119.43 200.864L119.138 200.458ZM114.308 200.618L114.06 201.052L114.063 201.054L114.308 200.618ZM112.746 198.914L112.298 199.136L112.298 199.137L112.746 198.914ZM112.177 187.364V186.864H111.677V187.364H112.177ZM114.273 187.364H114.773V186.864H114.273V187.364ZM115.107 198.266L114.743 198.608L114.745 198.61L115.107 198.266ZM118.845 198.754L118.625 198.305L118.623 198.306L118.845 198.754ZM120.212 197.529L119.798 197.248L119.796 197.251L120.212 197.529ZM120.771 195.425H121.271V187.364H120.771H120.271V195.425H120.771ZM120.771 187.364V187.864H122.866V187.364V186.864H120.771V187.364ZM122.866 187.364H122.366V201H122.866H123.366V187.364H122.866ZM122.866 201V200.5H120.771V201V201.5H122.866V201ZM120.771 201H121.271V198.692H120.771H120.271V201H120.771ZM120.771 198.692V198.192H120.629V198.692V199.192H120.771V198.692ZM120.629 198.692L120.175 198.482C119.895 199.089 119.457 199.613 118.846 200.053L119.138 200.458L119.43 200.864C120.168 200.333 120.724 199.679 121.083 198.901L120.629 198.692ZM119.138 200.458L118.848 200.051C118.277 200.457 117.532 200.678 116.581 200.678V201.178V201.678C117.689 201.678 118.649 201.419 119.427 200.866L119.138 200.458ZM116.581 201.178V200.678C115.804 200.678 115.133 200.508 114.553 200.182L114.308 200.618L114.063 201.054C114.809 201.474 115.653 201.678 116.581 201.678V201.178ZM114.308 200.618L114.556 200.184C113.988 199.86 113.532 199.369 113.193 198.69L112.746 198.914L112.298 199.137C112.716 199.973 113.302 200.619 114.06 201.052L114.308 200.618ZM112.746 198.914L113.193 198.691C112.859 198.017 112.677 197.138 112.677 196.028H112.177H111.677C111.677 197.239 111.875 198.283 112.298 199.136L112.746 198.914ZM112.177 196.028H112.677V187.364H112.177H111.677V196.028H112.177ZM112.177 187.364V187.864H114.273V187.364V186.864H112.177V187.364ZM114.273 187.364H113.773V195.886H114.273H114.773V187.364H114.273ZM114.273 195.886H113.773C113.773 196.978 114.081 197.904 114.743 198.608L115.107 198.266L115.471 197.923C115.021 197.444 114.773 196.783 114.773 195.886H114.273ZM115.107 198.266L114.745 198.61C115.408 199.308 116.258 199.653 117.256 199.653V199.153V198.653C116.512 198.653 115.931 198.407 115.47 197.921L115.107 198.266ZM117.256 199.153V199.653C117.864 199.653 118.469 199.497 119.066 199.202L118.845 198.754L118.623 198.306C118.143 198.543 117.688 198.653 117.256 198.653V199.153ZM118.845 198.754L119.064 199.203C119.695 198.894 120.216 198.423 120.628 197.806L120.212 197.529L119.796 197.251C119.473 197.735 119.083 198.081 118.625 198.305L118.845 198.754ZM120.212 197.529L120.626 197.809C121.069 197.155 121.271 196.349 121.271 195.425H120.771H120.271C120.271 196.205 120.101 196.801 119.798 197.248L120.212 197.529ZM128.657 196.028L128.157 196.035L128.172 197.159L128.997 196.395L128.657 196.028ZM128.621 193.436V192.936H128.114L128.121 193.443L128.621 193.436ZM129.047 193.436V193.936H129.257L129.404 193.786L129.047 193.436ZM135.013 187.364V186.864H134.804L134.657 187.013L135.013 187.364ZM137.606 187.364L137.961 187.715L138.803 186.864H137.606V187.364ZM131.249 193.791V194.291H131.458L131.605 194.143L131.249 193.791ZM131.072 193.791V193.291H130.876L130.732 193.424L131.072 193.791ZM126.704 201H126.204V201.5H126.704V201ZM126.704 182.818V182.318H126.204V182.818H126.704ZM128.799 182.818H129.299V182.318H128.799V182.818ZM128.799 201V201.5H129.299V201H128.799ZM135.369 201L134.976 201.31L135.126 201.5H135.369V201ZM130.042 194.253L129.693 193.895L129.371 194.209L129.649 194.563L130.042 194.253ZM131.533 192.797L131.925 192.486L131.581 192.052L131.184 192.439L131.533 192.797ZM138.032 201V201.5H139.066L138.424 200.69L138.032 201ZM128.657 196.028L129.157 196.022L129.121 193.429L128.621 193.436L128.121 193.443L128.157 196.035L128.657 196.028ZM128.621 193.436V193.936H129.047V193.436V192.936H128.621V193.436ZM129.047 193.436L129.404 193.786L135.37 187.714L135.013 187.364L134.657 187.013L128.691 193.086L129.047 193.436ZM135.013 187.364V187.864H137.606V187.364V186.864H135.013V187.364ZM137.606 187.364L137.25 187.012L130.894 193.44L131.249 193.791L131.605 194.143L137.961 187.715L137.606 187.364ZM131.249 193.791V193.291H131.072V193.791V194.291H131.249V193.791ZM131.072 193.791L130.732 193.424L128.317 195.662L128.657 196.028L128.997 196.395L131.411 194.158L131.072 193.791ZM126.704 201H127.204V182.818H126.704H126.204V201H126.704ZM126.704 182.818V183.318H128.799V182.818V182.318H126.704V182.818ZM128.799 182.818H128.299V201H128.799H129.299V182.818H128.799ZM128.799 201V200.5H126.704V201V201.5H128.799V201ZM135.369 201L135.761 200.69L130.434 193.943L130.042 194.253L129.649 194.563L134.976 201.31L135.369 201ZM130.042 194.253L130.391 194.611L131.883 193.155L131.533 192.797L131.184 192.439L129.693 193.895L130.042 194.253ZM131.533 192.797L131.141 193.107L137.64 201.31L138.032 201L138.424 200.69L131.925 192.486L131.533 192.797ZM138.032 201V200.5H135.369V201V201.5H138.032V201ZM141.963 200.831L141.75 201.284L141.753 201.285L141.963 200.831ZM140.285 199.402L139.867 199.678L139.869 199.679L140.285 199.402ZM140.125 195.229L140.547 195.497L140.549 195.495L140.125 195.229ZM143.063 193.454L143.17 193.942L143.174 193.941L143.063 193.454ZM144.954 193.116L144.891 192.621L144.889 192.621L144.954 193.116ZM146.97 192.877L147.021 193.374L147.026 193.374L146.97 192.877ZM148.106 192.584L147.861 192.148L147.857 192.15L148.106 192.584ZM147.751 189.761L147.393 190.11L147.395 190.112L147.751 189.761ZM143.241 189.69L143.546 190.086L143.241 189.69ZM142.042 191.092L141.874 191.563L142.304 191.717L142.496 191.303L142.042 191.092ZM140.054 190.382L139.594 190.185L139.385 190.674L139.886 190.853L140.054 190.382ZM141.474 188.447L141.782 188.841L141.782 188.841L141.474 188.447ZM143.427 187.47L143.553 187.954L143.556 187.953L143.427 187.47ZM147.032 187.346L146.94 187.837L146.945 187.838L147.032 187.346ZM148.692 187.976L148.435 188.405L148.437 188.406L148.692 187.976ZM150.032 189.423L149.594 189.664V189.664L150.032 189.423ZM150.565 201V201.5H151.065V201H150.565ZM148.47 201H147.97V201.5H148.47V201ZM148.47 199.153H148.97V198.653H148.47V199.153ZM148.363 199.153V198.653H148.049L147.913 198.937L148.363 199.153ZM147.653 200.103L148.01 200.454L147.653 200.103ZM146.33 200.964L146.133 200.505L146.33 200.964ZM146.73 198.949L146.483 198.514L146.481 198.515L146.73 198.949ZM148.026 197.689L147.593 197.439L147.59 197.443L148.026 197.689ZM148.47 194.146H148.97V192.765L148.086 193.826L148.47 194.146ZM147.884 194.439L148.019 194.921L148.025 194.919L147.884 194.439ZM146.854 194.661L146.93 195.155L146.936 195.154L146.854 194.661ZM145.727 194.821L145.784 195.318L145.791 195.317L145.727 194.821ZM144.848 194.928L144.913 195.423L144.913 195.423L144.848 194.928ZM143.321 195.274L143.477 195.749L143.481 195.748L143.321 195.274ZM142.184 195.975L141.817 195.636L141.817 195.636L142.184 195.975ZM142.566 198.887L142.282 199.298L142.287 199.302L142.566 198.887ZM144.315 201.32V200.82C143.515 200.82 142.804 200.669 142.172 200.377L141.963 200.831L141.753 201.285C142.53 201.644 143.387 201.82 144.315 201.82V201.32ZM141.963 200.831L142.175 200.379C141.55 200.085 141.062 199.667 140.701 199.125L140.285 199.402L139.869 199.679C140.336 200.38 140.967 200.915 141.75 201.284L141.963 200.831ZM140.285 199.402L140.702 199.126C140.351 198.595 140.163 197.937 140.163 197.129H139.663H139.163C139.163 198.097 139.39 198.955 139.867 199.678L140.285 199.402ZM139.663 197.129H140.163C140.163 196.41 140.305 195.878 140.547 195.497L140.125 195.229L139.703 194.962C139.329 195.551 139.163 196.286 139.163 197.129H139.663ZM140.125 195.229L140.549 195.495C140.81 195.078 141.157 194.753 141.596 194.515L141.359 194.075L141.121 193.635C140.531 193.954 140.055 194.399 139.701 194.964L140.125 195.229ZM141.359 194.075L141.596 194.515C142.067 194.261 142.591 194.069 143.17 193.942L143.063 193.454L142.956 192.965C142.293 193.111 141.681 193.333 141.121 193.635L141.359 194.075ZM143.063 193.454L143.174 193.941C143.786 193.803 144.401 193.693 145.019 193.612L144.954 193.116L144.889 192.621C144.241 192.706 143.595 192.821 142.953 192.966L143.063 193.454ZM144.954 193.116L145.018 193.612C145.845 193.506 146.512 193.427 147.021 193.374L146.97 192.877L146.918 192.379C146.397 192.433 145.721 192.514 144.891 192.621L144.954 193.116ZM146.97 192.877L147.026 193.374C147.564 193.312 148.027 193.206 148.355 193.017L148.106 192.584L147.857 192.15C147.712 192.234 147.417 192.323 146.913 192.38L146.97 192.877ZM148.106 192.584L148.351 193.02C148.787 192.775 148.97 192.346 148.97 191.874H148.47H147.97C147.97 192.076 147.91 192.12 147.861 192.148L148.106 192.584ZM148.47 191.874H148.97V191.803H148.47H147.97V191.874H148.47ZM148.47 191.803H148.97C148.97 190.834 148.703 190.013 148.107 189.409L147.751 189.761L147.395 190.112C147.758 190.479 147.97 191.019 147.97 191.803H148.47ZM147.751 189.761L148.109 189.411C147.507 188.795 146.635 188.533 145.594 188.533V189.033V189.533C146.481 189.533 147.047 189.756 147.393 190.11L147.751 189.761ZM145.594 189.033V188.533C144.526 188.533 143.62 188.766 142.936 189.294L143.241 189.69L143.546 190.086C143.998 189.737 144.661 189.533 145.594 189.533V189.033ZM143.241 189.69L142.936 189.294C142.323 189.766 141.862 190.293 141.589 190.882L142.042 191.092L142.496 191.303C142.684 190.898 143.023 190.489 143.546 190.086L143.241 189.69ZM142.042 191.092L142.211 190.621L140.222 189.911L140.054 190.382L139.886 190.853L141.874 191.563L142.042 191.092ZM140.054 190.382L140.513 190.579C140.842 189.812 141.269 189.241 141.782 188.841L141.474 188.447L141.167 188.052C140.496 188.576 139.976 189.295 139.594 190.185L140.054 190.382ZM141.474 188.447L141.782 188.841C142.329 188.413 142.918 188.12 143.553 187.954L143.427 187.47L143.301 186.986C142.528 187.188 141.816 187.545 141.166 188.053L141.474 188.447ZM143.427 187.47L143.556 187.953C144.227 187.774 144.882 187.686 145.523 187.686V187.186V186.686C144.79 186.686 144.048 186.787 143.299 186.987L143.427 187.47ZM145.523 187.186V187.686C145.922 187.686 146.393 187.735 146.94 187.837L147.032 187.346L147.124 186.854C146.534 186.744 145.999 186.686 145.523 186.686V187.186ZM147.032 187.346L146.945 187.838C147.455 187.928 147.951 188.115 148.435 188.405L148.692 187.976L148.949 187.547C148.367 187.198 147.756 186.965 147.118 186.853L147.032 187.346ZM148.692 187.976L148.437 188.406C148.886 188.673 149.275 189.084 149.594 189.664L150.032 189.423L150.471 189.182C150.08 188.473 149.575 187.919 148.947 187.546L148.692 187.976ZM150.032 189.423L149.594 189.664C149.894 190.209 150.065 190.98 150.065 192.016H150.565H151.065C151.065 190.885 150.881 189.928 150.471 189.182L150.032 189.423ZM150.565 192.016H150.065V201H150.565H151.065V192.016H150.565ZM150.565 201V200.5H148.47V201V201.5H150.565V201ZM148.47 201H148.97V199.153H148.47H147.97V201H148.47ZM148.47 199.153V198.653H148.363V199.153V199.653H148.47V199.153ZM148.363 199.153L147.913 198.937C147.802 199.167 147.605 199.439 147.297 199.753L147.653 200.103L148.01 200.454C148.364 200.093 148.64 199.732 148.814 199.37L148.363 199.153ZM147.653 200.103L147.297 199.753C147.021 200.033 146.639 200.287 146.133 200.505L146.33 200.964L146.528 201.424C147.123 201.168 147.623 200.848 148.01 200.454L147.653 200.103ZM146.33 200.964L146.133 200.505C145.662 200.708 145.061 200.82 144.315 200.82V201.32V201.82C145.155 201.82 145.898 201.695 146.528 201.424L146.33 200.964ZM144.635 199.438V199.938C145.528 199.938 146.317 199.762 146.978 199.383L146.73 198.949L146.481 198.515C146.006 198.787 145.399 198.938 144.635 198.938V199.438ZM146.73 198.949L146.977 199.384C147.62 199.019 148.122 198.537 148.462 197.934L148.026 197.689L147.59 197.443C147.35 197.87 146.988 198.228 146.483 198.514L146.73 198.949ZM148.026 197.689L148.46 197.938C148.797 197.351 148.97 196.724 148.97 196.064H148.47H147.97C147.97 196.541 147.847 196.997 147.593 197.439L148.026 197.689ZM148.47 196.064H148.97V194.146H148.47H147.97V196.064H148.47ZM148.47 194.146L148.086 193.826C148.104 193.805 148.101 193.818 148.033 193.852C147.971 193.883 147.877 193.92 147.743 193.96L147.884 194.439L148.025 194.919C148.193 194.87 148.348 194.813 148.481 194.747C148.608 194.683 148.747 194.594 148.854 194.466L148.47 194.146ZM147.884 194.439L147.749 193.958C147.475 194.035 147.15 194.105 146.772 194.168L146.854 194.661L146.936 195.154C147.34 195.087 147.702 195.01 148.019 194.921L147.884 194.439ZM146.854 194.661L146.778 194.167C146.397 194.226 146.025 194.278 145.663 194.325L145.727 194.821L145.791 195.317C146.162 195.269 146.542 195.215 146.93 195.155L146.854 194.661ZM145.727 194.821L145.67 194.324C145.307 194.366 145.011 194.402 144.783 194.432L144.848 194.928L144.913 195.423C145.134 195.394 145.424 195.359 145.784 195.318L145.727 194.821ZM144.848 194.928L144.783 194.432C144.209 194.507 143.668 194.629 143.161 194.8L143.321 195.274L143.481 195.748C143.92 195.599 144.397 195.491 144.913 195.423L144.848 194.928ZM143.321 195.274L143.165 194.799C142.629 194.975 142.173 195.251 141.817 195.636L142.184 195.975L142.552 196.315C142.776 196.072 143.078 195.88 143.477 195.749L143.321 195.274ZM142.184 195.975L141.817 195.636C141.426 196.059 141.258 196.613 141.258 197.236H141.758H142.258C142.258 196.793 142.374 196.507 142.552 196.314L142.184 195.975ZM141.758 197.236H141.258C141.258 198.107 141.591 198.82 142.282 199.298L142.566 198.887L142.851 198.476C142.464 198.208 142.258 197.821 142.258 197.236H141.758ZM142.566 198.887L142.287 199.302C142.934 199.738 143.728 199.938 144.635 199.938V199.438V198.938C143.873 198.938 143.288 198.77 142.846 198.472L142.566 198.887Z" fill="#3338A0" mask="url(#path-7-outside-1_7_19)"/>
<mask id="path-9-outside-2_7_19" maskUnits="userSpaceOnUse" x="155" y="181" width="63" height="26" fill="black">
<rect fill="white" x="155" y="181" width="63" height="26"/>
<path d="M156.2 201V182.375H162.6C163.817 182.375 164.883 182.617 165.8 183.1C166.717 183.567 167.425 184.233 167.925 185.1C168.442 185.95 168.7 186.942 168.7 188.075C168.7 189.208 168.442 190.2 167.925 191.05C167.425 191.9 166.717 192.567 165.8 193.05C164.9 193.517 163.833 193.75 162.6 193.75H158.2V201H156.2ZM158.2 191.875H162.7C163.5 191.875 164.2 191.725 164.8 191.425C165.4 191.108 165.867 190.667 166.2 190.1C166.533 189.517 166.7 188.833 166.7 188.05C166.7 187.267 166.533 186.592 166.2 186.025C165.867 185.458 165.4 185.025 164.8 184.725C164.2 184.408 163.5 184.25 162.7 184.25H158.2V191.875ZM174.863 201.3C174.013 201.3 173.255 201.142 172.588 200.825C171.922 200.492 171.397 200.042 171.013 199.475C170.63 198.908 170.438 198.258 170.438 197.525C170.438 196.825 170.588 196.192 170.888 195.625C171.188 195.042 171.655 194.55 172.288 194.15C172.922 193.75 173.73 193.467 174.713 193.3L179.963 192.425V194.125L175.163 194.925C174.197 195.092 173.497 195.4 173.063 195.85C172.647 196.3 172.438 196.833 172.438 197.45C172.438 198.05 172.672 198.558 173.138 198.975C173.622 199.392 174.238 199.6 174.988 199.6C175.905 199.6 176.705 199.408 177.388 199.025C178.072 198.625 178.605 198.092 178.988 197.425C179.372 196.758 179.563 196.017 179.563 195.2V191.8C179.563 191 179.272 190.35 178.688 189.85C178.105 189.35 177.347 189.1 176.413 189.1C175.597 189.1 174.88 189.308 174.263 189.725C173.647 190.125 173.188 190.65 172.888 191.3L171.188 190.375C171.438 189.808 171.83 189.292 172.363 188.825C172.913 188.358 173.538 187.992 174.238 187.725C174.938 187.442 175.663 187.3 176.413 187.3C177.397 187.3 178.263 187.492 179.013 187.875C179.78 188.258 180.372 188.792 180.788 189.475C181.222 190.142 181.438 190.917 181.438 191.8V201H179.563V198.325L179.838 198.6C179.605 199.1 179.238 199.558 178.738 199.975C178.255 200.375 177.68 200.7 177.013 200.95C176.363 201.183 175.647 201.3 174.863 201.3ZM182.795 206.5C182.678 206.5 182.52 206.492 182.32 206.475C182.103 206.458 181.928 206.433 181.795 206.4V204.675C182.145 204.725 182.495 204.75 182.845 204.75C183.528 204.75 184.103 204.542 184.57 204.125C185.053 203.708 185.295 203.083 185.295 202.25V187.6H187.17V202.25C187.17 203.167 186.97 203.942 186.57 204.575C186.17 205.208 185.637 205.683 184.97 206C184.32 206.333 183.595 206.5 182.795 206.5ZM185.295 185.125V182.375H187.17V185.125H185.295ZM194.883 201.3C194.033 201.3 193.275 201.142 192.608 200.825C191.941 200.492 191.416 200.042 191.033 199.475C190.65 198.908 190.458 198.258 190.458 197.525C190.458 196.825 190.608 196.192 190.908 195.625C191.208 195.042 191.675 194.55 192.308 194.15C192.941 193.75 193.75 193.467 194.733 193.3L199.983 192.425V194.125L195.183 194.925C194.216 195.092 193.516 195.4 193.083 195.85C192.666 196.3 192.458 196.833 192.458 197.45C192.458 198.05 192.691 198.558 193.158 198.975C193.641 199.392 194.258 199.6 195.008 199.6C195.925 199.6 196.725 199.408 197.408 199.025C198.091 198.625 198.625 198.092 199.008 197.425C199.391 196.758 199.583 196.017 199.583 195.2V191.8C199.583 191 199.291 190.35 198.708 189.85C198.125 189.35 197.366 189.1 196.433 189.1C195.616 189.1 194.9 189.308 194.283 189.725C193.666 190.125 193.208 190.65 192.908 191.3L191.208 190.375C191.458 189.808 191.85 189.292 192.383 188.825C192.933 188.358 193.558 187.992 194.258 187.725C194.958 187.442 195.683 187.3 196.433 187.3C197.416 187.3 198.283 187.492 199.033 187.875C199.8 188.258 200.391 188.792 200.808 189.475C201.241 190.142 201.458 190.917 201.458 191.8V201H199.583V198.325L199.858 198.6C199.625 199.1 199.258 199.558 198.758 199.975C198.275 200.375 197.7 200.7 197.033 200.95C196.383 201.183 195.666 201.3 194.883 201.3ZM205.315 201V182.075H207.19V195.325L206.39 195.2L213.915 187.6H216.34L211.09 192.975L216.815 201H214.565L209.19 193.575L210.39 193.675L206.565 197.625L207.19 196.075V201H205.315Z"/>
</mask>
<path d="M156.2 201V182.375H162.6C163.817 182.375 164.883 182.617 165.8 183.1C166.717 183.567 167.425 184.233 167.925 185.1C168.442 185.95 168.7 186.942 168.7 188.075C168.7 189.208 168.442 190.2 167.925 191.05C167.425 191.9 166.717 192.567 165.8 193.05C164.9 193.517 163.833 193.75 162.6 193.75H158.2V201H156.2ZM158.2 191.875H162.7C163.5 191.875 164.2 191.725 164.8 191.425C165.4 191.108 165.867 190.667 166.2 190.1C166.533 189.517 166.7 188.833 166.7 188.05C166.7 187.267 166.533 186.592 166.2 186.025C165.867 185.458 165.4 185.025 164.8 184.725C164.2 184.408 163.5 184.25 162.7 184.25H158.2V191.875ZM174.863 201.3C174.013 201.3 173.255 201.142 172.588 200.825C171.922 200.492 171.397 200.042 171.013 199.475C170.63 198.908 170.438 198.258 170.438 197.525C170.438 196.825 170.588 196.192 170.888 195.625C171.188 195.042 171.655 194.55 172.288 194.15C172.922 193.75 173.73 193.467 174.713 193.3L179.963 192.425V194.125L175.163 194.925C174.197 195.092 173.497 195.4 173.063 195.85C172.647 196.3 172.438 196.833 172.438 197.45C172.438 198.05 172.672 198.558 173.138 198.975C173.622 199.392 174.238 199.6 174.988 199.6C175.905 199.6 176.705 199.408 177.388 199.025C178.072 198.625 178.605 198.092 178.988 197.425C179.372 196.758 179.563 196.017 179.563 195.2V191.8C179.563 191 179.272 190.35 178.688 189.85C178.105 189.35 177.347 189.1 176.413 189.1C175.597 189.1 174.88 189.308 174.263 189.725C173.647 190.125 173.188 190.65 172.888 191.3L171.188 190.375C171.438 189.808 171.83 189.292 172.363 188.825C172.913 188.358 173.538 187.992 174.238 187.725C174.938 187.442 175.663 187.3 176.413 187.3C177.397 187.3 178.263 187.492 179.013 187.875C179.78 188.258 180.372 188.792 180.788 189.475C181.222 190.142 181.438 190.917 181.438 191.8V201H179.563V198.325L179.838 198.6C179.605 199.1 179.238 199.558 178.738 199.975C178.255 200.375 177.68 200.7 177.013 200.95C176.363 201.183 175.647 201.3 174.863 201.3ZM182.795 206.5C182.678 206.5 182.52 206.492 182.32 206.475C182.103 206.458 181.928 206.433 181.795 206.4V204.675C182.145 204.725 182.495 204.75 182.845 204.75C183.528 204.75 184.103 204.542 184.57 204.125C185.053 203.708 185.295 203.083 185.295 202.25V187.6H187.17V202.25C187.17 203.167 186.97 203.942 186.57 204.575C186.17 205.208 185.637 205.683 184.97 206C184.32 206.333 183.595 206.5 182.795 206.5ZM185.295 185.125V182.375H187.17V185.125H185.295ZM194.883 201.3C194.033 201.3 193.275 201.142 192.608 200.825C191.941 200.492 191.416 200.042 191.033 199.475C190.65 198.908 190.458 198.258 190.458 197.525C190.458 196.825 190.608 196.192 190.908 195.625C191.208 195.042 191.675 194.55 192.308 194.15C192.941 193.75 193.75 193.467 194.733 193.3L199.983 192.425V194.125L195.183 194.925C194.216 195.092 193.516 195.4 193.083 195.85C192.666 196.3 192.458 196.833 192.458 197.45C192.458 198.05 192.691 198.558 193.158 198.975C193.641 199.392 194.258 199.6 195.008 199.6C195.925 199.6 196.725 199.408 197.408 199.025C198.091 198.625 198.625 198.092 199.008 197.425C199.391 196.758 199.583 196.017 199.583 195.2V191.8C199.583 191 199.291 190.35 198.708 189.85C198.125 189.35 197.366 189.1 196.433 189.1C195.616 189.1 194.9 189.308 194.283 189.725C193.666 190.125 193.208 190.65 192.908 191.3L191.208 190.375C191.458 189.808 191.85 189.292 192.383 188.825C192.933 188.358 193.558 187.992 194.258 187.725C194.958 187.442 195.683 187.3 196.433 187.3C197.416 187.3 198.283 187.492 199.033 187.875C199.8 188.258 200.391 188.792 200.808 189.475C201.241 190.142 201.458 190.917 201.458 191.8V201H199.583V198.325L199.858 198.6C199.625 199.1 199.258 199.558 198.758 199.975C198.275 200.375 197.7 200.7 197.033 200.95C196.383 201.183 195.666 201.3 194.883 201.3ZM205.315 201V182.075H207.19V195.325L206.39 195.2L213.915 187.6H216.34L211.09 192.975L216.815 201H214.565L209.19 193.575L210.39 193.675L206.565 197.625L207.19 196.075V201H205.315Z" fill="#FCC61D"/>
<path d="M156.2 201H155.7V201.5H156.2V201ZM156.2 182.375V181.875H155.7V182.375H156.2ZM165.8 183.1L165.567 183.542L165.573 183.546L165.8 183.1ZM167.925 185.1L167.492 185.35L167.498 185.36L167.925 185.1ZM167.925 191.05L167.498 190.79L167.494 190.796L167.925 191.05ZM165.8 193.05L166.03 193.494L166.033 193.492L165.8 193.05ZM158.2 193.75V193.25H157.7V193.75H158.2ZM158.2 201V201.5H158.7V201H158.2ZM158.2 191.875H157.7V192.375H158.2V191.875ZM164.8 191.425L165.024 191.872L165.033 191.867L164.8 191.425ZM166.2 190.1L166.631 190.354L166.634 190.348L166.2 190.1ZM166.2 186.025L166.631 185.771L166.2 186.025ZM164.8 184.725L164.567 185.167L164.576 185.172L164.8 184.725ZM158.2 184.25V183.75H157.7V184.25H158.2ZM156.2 201H156.7V182.375H156.2H155.7V201H156.2ZM156.2 182.375V182.875H162.6V182.375V181.875H156.2V182.375ZM162.6 182.375V182.875C163.75 182.875 164.734 183.103 165.567 183.542L165.8 183.1L166.033 182.658C165.033 182.13 163.884 181.875 162.6 181.875V182.375ZM165.8 183.1L165.573 183.546C166.406 183.97 167.042 184.569 167.492 185.35L167.925 185.1L168.358 184.85C167.808 183.897 167.027 183.164 166.027 182.654L165.8 183.1ZM167.925 185.1L167.498 185.36C167.96 186.121 168.2 187.02 168.2 188.075H168.7H169.2C169.2 186.863 168.923 185.779 168.352 184.84L167.925 185.1ZM168.7 188.075H168.2C168.2 189.13 167.96 190.029 167.498 190.79L167.925 191.05L168.352 191.31C168.923 190.371 169.2 189.287 169.2 188.075H168.7ZM167.925 191.05L167.494 190.796C167.044 191.562 166.406 192.165 165.567 192.608L165.8 193.05L166.033 193.492C167.028 192.968 167.806 192.238 168.356 191.304L167.925 191.05ZM165.8 193.05L165.57 192.606C164.755 193.029 163.77 193.25 162.6 193.25V193.75V194.25C163.896 194.25 165.045 194.005 166.03 193.494L165.8 193.05ZM162.6 193.75V193.25H158.2V193.75V194.25H162.6V193.75ZM158.2 193.75H157.7V201H158.2H158.7V193.75H158.2ZM158.2 201V200.5H156.2V201V201.5H158.2V201ZM158.2 191.875V192.375H162.7V191.875V191.375H158.2V191.875ZM162.7 191.875V192.375C163.563 192.375 164.342 192.213 165.024 191.872L164.8 191.425L164.576 190.978C164.058 191.237 163.437 191.375 162.7 191.375V191.875ZM164.8 191.425L165.033 191.867C165.713 191.509 166.249 191.003 166.631 190.354L166.2 190.1L165.769 189.846C165.484 190.33 165.087 190.708 164.567 190.983L164.8 191.425ZM166.2 190.1L166.634 190.348C167.017 189.677 167.2 188.906 167.2 188.05H166.7H166.2C166.2 188.761 166.049 189.356 165.766 189.852L166.2 190.1ZM166.7 188.05H167.2C167.2 187.195 167.017 186.429 166.631 185.771L166.2 186.025L165.769 186.279C166.049 186.755 166.2 187.339 166.2 188.05H166.7ZM166.2 186.025L166.631 185.771C166.248 185.12 165.708 184.62 165.024 184.278L164.8 184.725L164.576 185.172C165.092 185.43 165.486 185.797 165.769 186.279L166.2 186.025ZM164.8 184.725L165.033 184.283C164.35 183.922 163.567 183.75 162.7 183.75V184.25V184.75C163.433 184.75 164.05 184.895 164.567 185.167L164.8 184.725ZM162.7 184.25V183.75H158.2V184.25V184.75H162.7V184.25ZM158.2 184.25H157.7V191.875H158.2H158.7V184.25H158.2ZM172.588 200.825L172.365 201.272L172.374 201.277L172.588 200.825ZM171.013 199.475L170.599 199.755L171.013 199.475ZM170.888 195.625L171.33 195.859L171.333 195.854L170.888 195.625ZM172.288 194.15L172.021 193.727L172.288 194.15ZM174.713 193.3L174.631 192.807L174.63 192.807L174.713 193.3ZM179.963 192.425H180.463V191.835L179.881 191.932L179.963 192.425ZM179.963 194.125L180.046 194.618L180.463 194.549V194.125H179.963ZM175.163 194.925L175.081 194.432L175.079 194.432L175.163 194.925ZM173.063 195.85L172.703 195.503L172.697 195.51L173.063 195.85ZM173.138 198.975L172.805 199.348L172.812 199.354L173.138 198.975ZM177.388 199.025L177.633 199.461L177.641 199.457L177.388 199.025ZM178.988 197.425L179.422 197.674L178.988 197.425ZM174.263 189.725L174.536 190.145L174.543 190.139L174.263 189.725ZM172.888 191.3L172.65 191.739L173.119 191.994L173.342 191.51L172.888 191.3ZM171.188 190.375L170.731 190.173L170.545 190.594L170.95 190.814L171.188 190.375ZM172.363 188.825L172.04 188.444L172.034 188.449L172.363 188.825ZM174.238 187.725L174.417 188.192L174.426 188.188L174.238 187.725ZM179.013 187.875L178.786 188.32L178.79 188.322L179.013 187.875ZM180.788 189.475L180.362 189.735L180.365 189.741L180.369 189.747L180.788 189.475ZM181.438 201V201.5H181.938V201H181.438ZM179.563 201H179.063V201.5H179.563V201ZM179.563 198.325L179.917 197.971L179.063 197.118V198.325H179.563ZM179.838 198.6L180.292 198.811L180.44 198.494L180.192 198.246L179.838 198.6ZM178.738 199.975L179.057 200.36L179.059 200.359L178.738 199.975ZM177.013 200.95L177.182 201.421L177.189 201.418L177.013 200.95ZM174.863 201.3V200.8C174.076 200.8 173.393 200.654 172.803 200.373L172.588 200.825L172.374 201.277C173.117 201.63 173.951 201.8 174.863 201.8V201.3ZM172.588 200.825L172.812 200.378C172.215 200.079 171.759 199.684 171.428 199.195L171.013 199.475L170.599 199.755C171.035 200.399 171.628 200.904 172.365 201.272L172.588 200.825ZM171.013 199.475L171.428 199.195C171.104 198.717 170.938 198.166 170.938 197.525H170.438H169.938C169.938 198.351 170.156 199.1 170.599 199.755L171.013 199.475ZM170.438 197.525H170.938C170.938 196.899 171.072 196.347 171.33 195.859L170.888 195.625L170.447 195.391C170.105 196.036 169.938 196.751 169.938 197.525H170.438ZM170.888 195.625L171.333 195.854C171.587 195.36 171.987 194.932 172.555 194.573L172.288 194.15L172.021 193.727C171.324 194.168 170.79 194.723 170.444 195.396L170.888 195.625ZM172.288 194.15L172.555 194.573C173.118 194.218 173.858 193.952 174.797 193.793L174.713 193.3L174.63 192.807C173.602 192.981 172.726 193.282 172.021 193.727L172.288 194.15ZM174.713 193.3L174.796 193.793L180.046 192.918L179.963 192.425L179.881 191.932L174.631 192.807L174.713 193.3ZM179.963 192.425H179.463V194.125H179.963H180.463V192.425H179.963ZM179.963 194.125L179.881 193.632L175.081 194.432L175.163 194.925L175.246 195.418L180.046 194.618L179.963 194.125ZM175.163 194.925L175.079 194.432C174.063 194.607 173.242 194.944 172.703 195.503L173.063 195.85L173.424 196.197C173.752 195.856 174.331 195.576 175.248 195.418L175.163 194.925ZM173.063 195.85L172.697 195.51C172.194 196.053 171.938 196.708 171.938 197.45H172.438H172.938C172.938 196.959 173.1 196.547 173.43 196.19L173.063 195.85ZM172.438 197.45H171.938C171.938 198.199 172.238 198.841 172.805 199.348L173.138 198.975L173.471 198.602C173.106 198.276 172.938 197.901 172.938 197.45H172.438ZM173.138 198.975L172.812 199.354C173.402 199.862 174.141 200.1 174.988 200.1V199.6V199.1C174.336 199.1 173.842 198.921 173.465 198.596L173.138 198.975ZM174.988 199.6V200.1C175.976 200.1 176.863 199.893 177.633 199.461L177.388 199.025L177.144 198.589C176.547 198.924 175.834 199.1 174.988 199.1V199.6ZM177.388 199.025L177.641 199.457C178.397 199.014 178.994 198.419 179.422 197.674L178.988 197.425L178.555 197.176C178.216 197.765 177.746 198.236 177.136 198.593L177.388 199.025ZM178.988 197.425L179.422 197.674C179.852 196.927 180.063 196.099 180.063 195.2H179.563H179.063C179.063 195.935 178.892 196.59 178.555 197.176L178.988 197.425ZM179.563 195.2H180.063V191.8H179.563H179.063V195.2H179.563ZM179.563 191.8H180.063C180.063 190.861 179.713 190.07 179.014 189.47L178.688 189.85L178.363 190.23C178.83 190.63 179.063 191.139 179.063 191.8H179.563ZM178.688 189.85L179.014 189.47C178.322 188.877 177.439 188.6 176.413 188.6V189.1V189.6C177.254 189.6 177.889 189.823 178.363 190.23L178.688 189.85ZM176.413 189.1V188.6C175.507 188.6 174.691 188.833 173.984 189.311L174.263 189.725L174.543 190.139C175.069 189.784 175.686 189.6 176.413 189.6V189.1ZM174.263 189.725L173.991 189.306C173.298 189.755 172.775 190.352 172.434 191.09L172.888 191.3L173.342 191.51C173.602 190.948 173.996 190.495 174.536 190.144L174.263 189.725ZM172.888 191.3L173.127 190.861L171.427 189.936L171.188 190.375L170.95 190.814L172.65 191.739L172.888 191.3ZM171.188 190.375L171.646 190.577C171.862 190.086 172.206 189.627 172.693 189.201L172.363 188.825L172.034 188.449C171.454 188.957 171.014 189.531 170.731 190.173L171.188 190.375ZM172.363 188.825L172.687 189.206C173.192 188.778 173.767 188.439 174.416 188.192L174.238 187.725L174.06 187.258C173.31 187.544 172.635 187.939 172.04 188.444L172.363 188.825ZM174.238 187.725L174.426 188.188C175.067 187.929 175.728 187.8 176.413 187.8V187.3V186.8C175.599 186.8 174.81 186.954 174.051 187.262L174.238 187.725ZM176.413 187.3V187.8C177.331 187.8 178.117 187.978 178.786 188.32L179.013 187.875L179.241 187.43C178.41 187.005 177.463 186.8 176.413 186.8V187.3ZM179.013 187.875L178.79 188.322C179.479 188.667 179.997 189.138 180.362 189.735L180.788 189.475L181.215 189.215C180.746 188.445 180.082 187.85 179.237 187.428L179.013 187.875ZM180.788 189.475L180.369 189.747C180.744 190.324 180.938 191.002 180.938 191.8H181.438H181.938C181.938 190.831 181.699 189.959 181.208 189.203L180.788 189.475ZM181.438 191.8H180.938V201H181.438H181.938V191.8H181.438ZM181.438 201V200.5H179.563V201V201.5H181.438V201ZM179.563 201H180.063V198.325H179.563H179.063V201H179.563ZM179.563 198.325L179.21 198.679L179.485 198.954L179.838 198.6L180.192 198.246L179.917 197.971L179.563 198.325ZM179.838 198.6L179.385 198.389C179.188 198.811 178.872 199.213 178.418 199.591L178.738 199.975L179.059 200.359C179.605 199.904 180.022 199.389 180.292 198.811L179.838 198.6ZM178.738 199.975L178.42 199.59C177.985 199.95 177.459 200.249 176.838 200.482L177.013 200.95L177.189 201.418C177.901 201.151 178.526 200.8 179.057 200.36L178.738 199.975ZM177.013 200.95L176.845 200.479C176.255 200.691 175.597 200.8 174.863 200.8V201.3V201.8C175.697 201.8 176.471 201.676 177.182 201.421L177.013 200.95ZM182.32 206.475L182.362 205.977L182.358 205.976L182.32 206.475ZM181.795 206.4H181.295V206.79L181.674 206.885L181.795 206.4ZM181.795 204.675L181.866 204.18L181.295 204.098V204.675H181.795ZM184.57 204.125L184.244 203.746L184.237 203.752L184.57 204.125ZM185.295 187.6V187.1H184.795V187.6H185.295ZM187.17 187.6H187.67V187.1H187.17V187.6ZM186.57 204.575L186.147 204.308L186.57 204.575ZM184.97 206L184.756 205.548L184.749 205.552L184.742 205.555L184.97 206ZM185.295 185.125H184.795V185.625H185.295V185.125ZM185.295 182.375V181.875H184.795V182.375H185.295ZM187.17 182.375H187.67V181.875H187.17V182.375ZM187.17 185.125V185.625H187.67V185.125H187.17ZM182.795 206.5V206C182.699 206 182.556 205.993 182.362 205.977L182.32 206.475L182.279 206.973C182.484 206.99 182.658 207 182.795 207V206.5ZM182.32 206.475L182.358 205.976C182.156 205.961 182.012 205.939 181.916 205.915L181.795 206.4L181.674 206.885C181.845 206.928 182.051 206.956 182.282 206.974L182.32 206.475ZM181.795 206.4H182.295V204.675H181.795H181.295V206.4H181.795ZM181.795 204.675L181.724 205.17C182.098 205.223 182.471 205.25 182.845 205.25V204.75V204.25C182.519 204.25 182.193 204.227 181.866 204.18L181.795 204.675ZM182.845 204.75V205.25C183.639 205.25 184.336 205.004 184.903 204.498L184.57 204.125L184.237 203.752C183.871 204.079 183.418 204.25 182.845 204.25V204.75ZM184.57 204.125L184.897 204.504C185.522 203.965 185.795 203.181 185.795 202.25H185.295H184.795C184.795 202.985 184.585 203.452 184.244 203.746L184.57 204.125ZM185.295 202.25H185.795V187.6H185.295H184.795V202.25H185.295ZM185.295 187.6V188.1H187.17V187.6V187.1H185.295V187.6ZM187.17 187.6H186.67V202.25H187.17H187.67V187.6H187.17ZM187.17 202.25H186.67C186.67 203.093 186.487 203.771 186.147 204.308L186.57 204.575L186.993 204.842C187.454 204.113 187.67 203.24 187.67 202.25H187.17ZM186.57 204.575L186.147 204.308C185.797 204.863 185.335 205.273 184.756 205.548L184.97 206L185.185 206.452C185.938 206.094 186.543 205.554 186.993 204.842L186.57 204.575ZM184.97 206L184.742 205.555C184.169 205.849 183.523 206 182.795 206V206.5V207C183.667 207 184.471 206.818 185.198 206.445L184.97 206ZM185.295 185.125H185.795V182.375H185.295H184.795V185.125H185.295ZM185.295 182.375V182.875H187.17V182.375V181.875H185.295V182.375ZM187.17 182.375H186.67V185.125H187.17H187.67V182.375H187.17ZM187.17 185.125V184.625H185.295V185.125V185.625H187.17V185.125ZM192.608 200.825L192.384 201.272L192.393 201.277L192.608 200.825ZM191.033 199.475L190.619 199.755L191.033 199.475ZM190.908 195.625L191.35 195.859L191.353 195.854L190.908 195.625ZM192.308 194.15L192.041 193.727L192.308 194.15ZM194.733 193.3L194.651 192.807L194.649 192.807L194.733 193.3ZM199.983 192.425H200.483V191.835L199.901 191.932L199.983 192.425ZM199.983 194.125L200.065 194.618L200.483 194.549V194.125H199.983ZM195.183 194.925L195.101 194.432L195.098 194.432L195.183 194.925ZM193.083 195.85L192.723 195.503L192.716 195.51L193.083 195.85ZM193.158 198.975L192.825 199.348L192.832 199.354L193.158 198.975ZM197.408 199.025L197.653 199.461L197.661 199.457L197.408 199.025ZM199.008 197.425L199.441 197.674L199.008 197.425ZM194.283 189.725L194.555 190.145L194.563 190.139L194.283 189.725ZM192.908 191.3L192.669 191.739L193.138 191.994L193.362 191.51L192.908 191.3ZM191.208 190.375L190.751 190.173L190.565 190.594L190.969 190.814L191.208 190.375ZM192.383 188.825L192.059 188.444L192.054 188.449L192.383 188.825ZM194.258 187.725L194.436 188.192L194.446 188.188L194.258 187.725ZM199.033 187.875L198.805 188.32L198.809 188.322L199.033 187.875ZM200.808 189.475L200.381 189.735L200.385 189.741L200.389 189.747L200.808 189.475ZM201.458 201V201.5H201.958V201H201.458ZM199.583 201H199.083V201.5H199.583V201ZM199.583 198.325L199.937 197.971L199.083 197.118V198.325H199.583ZM199.858 198.6L200.311 198.811L200.459 198.494L200.212 198.246L199.858 198.6ZM198.758 199.975L199.077 200.36L199.078 200.359L198.758 199.975ZM197.033 200.95L197.202 201.421L197.209 201.418L197.033 200.95ZM194.883 201.3V200.8C194.096 200.8 193.413 200.654 192.823 200.373L192.608 200.825L192.393 201.277C193.137 201.63 193.97 201.8 194.883 201.8V201.3ZM192.608 200.825L192.832 200.378C192.235 200.079 191.778 199.684 191.447 199.195L191.033 199.475L190.619 199.755C191.055 200.399 191.648 200.904 192.384 201.272L192.608 200.825ZM191.033 199.475L191.447 199.195C191.124 198.717 190.958 198.166 190.958 197.525H190.458H189.958C189.958 198.351 190.175 199.1 190.619 199.755L191.033 199.475ZM190.458 197.525H190.958C190.958 196.899 191.091 196.347 191.35 195.859L190.908 195.625L190.466 195.391C190.125 196.036 189.958 196.751 189.958 197.525H190.458ZM190.908 195.625L191.353 195.854C191.606 195.36 192.006 194.932 192.575 194.573L192.308 194.15L192.041 193.727C191.343 194.168 190.81 194.723 190.463 195.396L190.908 195.625ZM192.308 194.15L192.575 194.573C193.137 194.218 193.878 193.952 194.817 193.793L194.733 193.3L194.649 192.807C193.621 192.981 192.745 193.282 192.041 193.727L192.308 194.15ZM194.733 193.3L194.815 193.793L200.065 192.918L199.983 192.425L199.901 191.932L194.651 192.807L194.733 193.3ZM199.983 192.425H199.483V194.125H199.983H200.483V192.425H199.983ZM199.983 194.125L199.901 193.632L195.101 194.432L195.183 194.925L195.265 195.418L200.065 194.618L199.983 194.125ZM195.183 194.925L195.098 194.432C194.082 194.607 193.261 194.944 192.723 195.503L193.083 195.85L193.443 196.197C193.771 195.856 194.351 195.576 195.268 195.418L195.183 194.925ZM193.083 195.85L192.716 195.51C192.213 196.053 191.958 196.708 191.958 197.45H192.458H192.958C192.958 196.959 193.119 196.547 193.45 196.19L193.083 195.85ZM192.458 197.45H191.958C191.958 198.199 192.257 198.841 192.825 199.348L193.158 198.975L193.491 198.602C193.125 198.276 192.958 197.901 192.958 197.45H192.458ZM193.158 198.975L192.832 199.354C193.421 199.862 194.16 200.1 195.008 200.1V199.6V199.1C194.356 199.1 193.862 198.921 193.484 198.596L193.158 198.975ZM195.008 199.6V200.1C195.996 200.1 196.883 199.893 197.653 199.461L197.408 199.025L197.163 198.589C196.567 198.924 195.854 199.1 195.008 199.1V199.6ZM197.408 199.025L197.661 199.457C198.417 199.014 199.013 198.419 199.441 197.674L199.008 197.425L198.575 197.176C198.236 197.765 197.766 198.236 197.155 198.593L197.408 199.025ZM199.008 197.425L199.441 197.674C199.871 196.927 200.083 196.099 200.083 195.2H199.583H199.083C199.083 195.935 198.912 196.59 198.575 197.176L199.008 197.425ZM199.583 195.2H200.083V191.8H199.583H199.083V195.2H199.583ZM199.583 191.8H200.083C200.083 190.861 199.733 190.07 199.033 189.47L198.708 189.85L198.383 190.23C198.85 190.63 199.083 191.139 199.083 191.8H199.583ZM198.708 189.85L199.033 189.47C198.341 188.877 197.459 188.6 196.433 188.6V189.1V189.6C197.274 189.6 197.908 189.823 198.383 190.23L198.708 189.85ZM196.433 189.1V188.6C195.527 188.6 194.71 188.833 194.003 189.311L194.283 189.725L194.563 190.139C195.089 189.784 195.706 189.6 196.433 189.6V189.1ZM194.283 189.725L194.011 189.306C193.317 189.755 192.795 190.352 192.454 191.09L192.908 191.3L193.362 191.51C193.621 190.948 194.015 190.495 194.555 190.144L194.283 189.725ZM192.908 191.3L193.147 190.861L191.447 189.936L191.208 190.375L190.969 190.814L192.669 191.739L192.908 191.3ZM191.208 190.375L191.665 190.577C191.882 190.086 192.226 189.627 192.712 189.201L192.383 188.825L192.054 188.449C191.473 188.957 191.034 189.531 190.751 190.173L191.208 190.375ZM192.383 188.825L192.706 189.206C193.212 188.778 193.787 188.439 194.436 188.192L194.258 187.725L194.08 187.258C193.329 187.544 192.654 187.939 192.06 188.444L192.383 188.825ZM194.258 187.725L194.446 188.188C195.086 187.929 195.748 187.8 196.433 187.8V187.3V186.8C195.618 186.8 194.83 186.954 194.07 187.262L194.258 187.725ZM196.433 187.3V187.8C197.35 187.8 198.137 187.978 198.805 188.32L199.033 187.875L199.261 187.43C198.429 187.005 197.482 186.8 196.433 186.8V187.3ZM199.033 187.875L198.809 188.322C199.498 188.667 200.017 189.138 200.381 189.735L200.808 189.475L201.235 189.215C200.766 188.445 200.101 187.85 199.257 187.428L199.033 187.875ZM200.808 189.475L200.389 189.747C200.764 190.324 200.958 191.002 200.958 191.8H201.458H201.958C201.958 190.831 201.719 189.959 201.227 189.203L200.808 189.475ZM201.458 191.8H200.958V201H201.458H201.958V191.8H201.458ZM201.458 201V200.5H199.583V201V201.5H201.458V201ZM199.583 201H200.083V198.325H199.583H199.083V201H199.583ZM199.583 198.325L199.229 198.679L199.504 198.954L199.858 198.6L200.212 198.246L199.937 197.971L199.583 198.325ZM199.858 198.6L199.405 198.389C199.208 198.811 198.891 199.213 198.438 199.591L198.758 199.975L199.078 200.359C199.625 199.904 200.042 199.389 200.311 198.811L199.858 198.6ZM198.758 199.975L198.439 199.59C198.004 199.95 197.479 200.249 196.857 200.482L197.033 200.95L197.209 201.418C197.92 201.151 198.545 200.8 199.077 200.36L198.758 199.975ZM197.033 200.95L196.864 200.479C196.275 200.691 195.616 200.8 194.883 200.8V201.3V201.8C195.716 201.8 196.491 201.676 197.202 201.421L197.033 200.95ZM205.315 201H204.815V201.5H205.315V201ZM205.315 182.075V181.575H204.815V182.075H205.315ZM207.19 182.075H207.69V181.575H207.19V182.075ZM207.19 195.325L207.112 195.819L207.69 195.909V195.325H207.19ZM206.39 195.2L206.034 194.848L205.346 195.543L206.312 195.694L206.39 195.2ZM213.915 187.6V187.1H213.706L213.559 187.248L213.915 187.6ZM216.34 187.6L216.697 187.949L217.527 187.1H216.34V187.6ZM211.09 192.975L210.732 192.626L210.44 192.925L210.683 193.265L211.09 192.975ZM216.815 201V201.5H217.786L217.222 200.71L216.815 201ZM214.565 201L214.16 201.293L214.309 201.5H214.565V201ZM209.19 193.575L209.231 193.077L208.146 192.986L208.785 193.868L209.19 193.575ZM210.39 193.675L210.749 194.023L211.483 193.264L210.431 193.177L210.39 193.675ZM206.565 197.625L206.101 197.438L206.924 197.973L206.565 197.625ZM207.19 196.075H207.69L206.726 195.888L207.19 196.075ZM207.19 201V201.5H207.69V201H207.19ZM205.315 201H205.815V182.075H205.315H204.815V201H205.315ZM205.315 182.075V182.575H207.19V182.075V181.575H205.315V182.075ZM207.19 182.075H206.69V195.325H207.19H207.69V182.075H207.19ZM207.19 195.325L207.267 194.831L206.467 194.706L206.39 195.2L206.312 195.694L207.112 195.819L207.19 195.325ZM206.39 195.2L206.745 195.552L214.27 187.952L213.915 187.6L213.559 187.248L206.034 194.848L206.39 195.2ZM213.915 187.6V188.1H216.34V187.6V187.1H213.915V187.6ZM216.34 187.6L215.982 187.251L210.732 192.626L211.09 192.975L211.447 193.324L216.697 187.949L216.34 187.6ZM211.09 192.975L210.683 193.265L216.408 201.29L216.815 201L217.222 200.71L211.497 192.685L211.09 192.975ZM216.815 201V200.5H214.565V201V201.5H216.815V201ZM214.565 201L214.97 200.707L209.595 193.282L209.19 193.575L208.785 193.868L214.16 201.293L214.565 201ZM209.19 193.575L209.148 194.073L210.348 194.173L210.39 193.675L210.431 193.177L209.231 193.077L209.19 193.575ZM210.39 193.675L210.03 193.327L206.205 197.277L206.565 197.625L206.924 197.973L210.749 194.023L210.39 193.675ZM206.565 197.625L207.028 197.812L207.653 196.262L207.19 196.075L206.726 195.888L206.101 197.438L206.565 197.625ZM207.19 196.075H206.69V201H207.19H207.69V196.075H207.19ZM207.19 201V200.5H205.315V201V201.5H207.19V201Z" fill="#FCC61D" mask="url(#path-9-outside-2_7_19)"/>
<path d="M122.601 166.926L147 175L147.5 175.5L147.5 177L147 177L140 174.843L133 173.343L126 171.843L118 170.343C121 168.843 122 168.343 122.601 166.926Z" fill="#FBC02D"/>
<rect x="80" y="95" width="6" height="73" fill="#FBC02D"/>
<path d="M85.9999 168C85.9999 168 76.4999 162 85.9999 162C95.5 162 99.7132 163.719 108.5 164.5L99.4999 168.5L85.9999 168Z" fill="#FBC02D"/>
<path d="M88.8746 151.114C88.8746 151.114 97.7493 152.728 102.875 153.614C108 154.5 116.5 157.5 116.5 157.5C116.5 157.5 114.5 158.5 113.5 159.5C112.5 160.5 110.5 162.5 110.5 162.5L88.8746 159.614V151.114Z" fill="#3F51B5"/>
<path d="M89 89H93V149.5L89 149V89Z" fill="#3F51B5"/>
<path d="M93 80.5L95 81L97 81.5V150L93 149.507V80.5Z" fill="#976A2B"/>
<path d="M93 84.9258L93.0001 83L93.0001 80.5C93.0001 80.5 110.18 83.4626 120.5 87.5C130.18 91.2871 144 100 144 100L142 101.5C142 101.5 128.181 93.2659 118.5 90C108.879 86.7545 93 84.9258 93 84.9258Z" fill="#976A2B"/>
<path d="M96.9999 145.5C96.9999 145.5 104.362 147.151 109 148.5C113.743 149.879 121 152.5 121 152.5L118 155.5C118 155.5 113.5 153.571 107.5 152C101.5 150.429 96.9999 150 96.9999 150L96.9999 145.5Z" fill="#976A2B"/>
<path d="M132.5 156.844C132.5 156.844 137.143 159.841 140 161.93C142.807 163.981 147 167.43 147 167.43L147 169.93C147 169.93 143.5 166.93 138.5 163.93C133.5 160.93 130 159.344 130 159.344C130 159.344 130.48 158.905 131 158.43C132 157.515 132.5 156.844 132.5 156.844Z" fill="#976A2B"/>
<path d="M211 80L209 80.5036L207 81.0072V150L211 149.504V80Z" fill="#976A2B"/>
<path d="M210.801 84.4551L210.8 82.5293L210.8 80.0293C210.8 80.0293 193.621 82.9919 183.301 87.0293C173.62 90.8164 159.801 99.5293 159.801 99.5293L161.801 101.029C161.801 101.029 175.619 92.7952 185.301 89.5293C194.921 86.2838 210.801 84.4551 210.801 84.4551Z" fill="#976A2B"/>
<path d="M157 168C157 168 169.859 157.86 179 153.5C189.265 148.605 207 145.5 207 145.5V150C207 150 190.416 153.335 180.5 157.5C170.987 161.495 157 170.5 157 170.5V168Z" fill="#976A2B"/>
<path d="M157 172C157 172 173.683 162.142 185 158C196.119 153.93 214.5 151 214.5 151V159.5C214.5 159.5 198.802 160.774 189 163C176.293 165.885 157 174 157 174V172Z" fill="#3F51B5"/>
<rect x="217" y="95" width="6" height="74" fill="#FBC02D"/>
<path d="M157 175C157 175 174.859 168.051 186.5 165.5C198.211 162.934 217 162 217 162V169C217 169 199.249 168.173 188 169.5C175.864 170.932 157 177 157 177V175Z" fill="#FBC02D"/>
<path d="M211 89H215L214.5 149L211 149.5V89Z" fill="#3F51B5"/>
<path d="M136.462 140.428L139.325 142.898L135.355 147.637L132.543 144.971L136.462 140.428Z" fill="#3338A0"/>
<path d="M147.018 146.04H158.018L157.518 177.04C157.518 177.04 154.556 178.489 152.518 178.54C150.292 178.596 147.018 177.04 147.018 177.04V146.04Z" fill="#3338A0"/>
<circle cx="152" cy="125" r="22" fill="#3338A0"/>
<path d="M147 98C147 98 149.617 94.5 152 94.5C154.383 94.5 157 98 157 98V104H147V98Z" fill="#3338A0"/>
<circle cx="152" cy="125" r="17" fill="#FCC61D"/>
<circle cx="152" cy="125" r="13" fill="white"/>
<mask id="path-33-outside-3_7_19" maskUnits="userSpaceOnUse" x="144" y="118" width="10" height="12" fill="black">
<rect fill="white" x="144" y="118" width="10" height="12"/>
<path d="M145.233 129V118.818H148.673C149.469 118.818 150.122 118.954 150.632 119.226C151.143 119.494 151.52 119.864 151.766 120.335C152.011 120.805 152.134 121.34 152.134 121.94C152.134 122.54 152.011 123.072 151.766 123.536C151.52 124 151.144 124.365 150.637 124.63C150.13 124.892 149.482 125.023 148.693 125.023H145.909V123.909H148.653C149.197 123.909 149.634 123.83 149.966 123.67C150.301 123.511 150.543 123.286 150.692 122.994C150.844 122.699 150.92 122.348 150.92 121.94C150.92 121.533 150.844 121.176 150.692 120.871C150.539 120.567 150.296 120.331 149.961 120.165C149.626 119.996 149.184 119.912 148.634 119.912H146.466V129H145.233ZM150.026 124.426L152.531 129H151.099L148.634 124.426H150.026Z"/>
</mask>
<path d="M145.233 129V118.818H148.673C149.469 118.818 150.122 118.954 150.632 119.226C151.143 119.494 151.52 119.864 151.766 120.335C152.011 120.805 152.134 121.34 152.134 121.94C152.134 122.54 152.011 123.072 151.766 123.536C151.52 124 151.144 124.365 150.637 124.63C150.13 124.892 149.482 125.023 148.693 125.023H145.909V123.909H148.653C149.197 123.909 149.634 123.83 149.966 123.67C150.301 123.511 150.543 123.286 150.692 122.994C150.844 122.699 150.92 122.348 150.92 121.94C150.92 121.533 150.844 121.176 150.692 120.871C150.539 120.567 150.296 120.331 149.961 120.165C149.626 119.996 149.184 119.912 148.634 119.912H146.466V129H145.233ZM150.026 124.426L152.531 129H151.099L148.634 124.426H150.026Z" fill="#FCC61D"/>
<path d="M145.233 129H144.933V129.3H145.233V129ZM145.233 118.818V118.518H144.933V118.818H145.233ZM150.632 119.226L150.491 119.491L150.492 119.491L150.632 119.226ZM151.766 120.335L151.5 120.473L151.766 120.335ZM151.766 123.536L151.5 123.396H151.5L151.766 123.536ZM150.637 124.63L150.775 124.897L150.776 124.896L150.637 124.63ZM145.909 125.023H145.609V125.323H145.909V125.023ZM145.909 123.909V123.609H145.609V123.909H145.909ZM149.966 123.67L149.837 123.399L149.836 123.4L149.966 123.67ZM150.692 122.994L150.425 122.857L150.425 122.858L150.692 122.994ZM150.692 120.871L150.96 120.737L150.692 120.871ZM149.961 120.165L149.826 120.433L149.828 120.434L149.961 120.165ZM146.466 119.912V119.612H146.166V119.912H146.466ZM146.466 129V129.3H146.766V129H146.466ZM150.026 124.426L150.289 124.282L150.203 124.126H150.026V124.426ZM152.531 129V129.3H153.038L152.794 128.856L152.531 129ZM151.099 129L150.835 129.142L150.92 129.3H151.099V129ZM148.634 124.426V124.126H148.131L148.369 124.569L148.634 124.426ZM145.233 129H145.533V118.818H145.233H144.933V129H145.233ZM145.233 118.818V119.118H148.673V118.818V118.518H145.233V118.818ZM148.673 118.818V119.118C149.437 119.118 150.037 119.249 150.491 119.491L150.632 119.226L150.773 118.961C150.206 118.659 149.5 118.518 148.673 118.518V118.818ZM150.632 119.226L150.492 119.491C150.954 119.734 151.285 120.061 151.5 120.473L151.766 120.335L152.032 120.196C151.756 119.666 151.331 119.255 150.772 118.96L150.632 119.226ZM151.766 120.335L151.5 120.473C151.72 120.896 151.834 121.382 151.834 121.94H152.134H152.434C152.434 121.299 152.302 120.715 152.032 120.196L151.766 120.335ZM152.134 121.94H151.834C151.834 122.498 151.72 122.981 151.5 123.396L151.766 123.536L152.031 123.676C152.302 123.163 152.434 122.582 152.434 121.94H152.134ZM151.766 123.536L151.5 123.396C151.286 123.801 150.956 124.124 150.498 124.364L150.637 124.63L150.776 124.896C151.332 124.605 151.755 124.199 152.031 123.676L151.766 123.536ZM150.637 124.63L150.499 124.363C150.048 124.597 149.451 124.723 148.693 124.723V125.023V125.323C149.513 125.323 150.212 125.187 150.775 124.897L150.637 124.63ZM148.693 125.023V124.723H145.909V125.023V125.323H148.693V125.023ZM145.909 125.023H146.209V123.909H145.909H145.609V125.023H145.909ZM145.909 123.909V124.209H148.653V123.909V123.609H145.909V123.909ZM148.653 123.909V124.209C149.222 124.209 149.709 124.126 150.096 123.941L149.966 123.67L149.836 123.4C149.56 123.533 149.172 123.609 148.653 123.609V123.909ZM149.966 123.67L150.095 123.941C150.481 123.758 150.776 123.489 150.959 123.131L150.692 122.994L150.425 122.858C150.309 123.083 150.12 123.265 149.837 123.399L149.966 123.67ZM150.692 122.994L150.958 123.132C151.137 122.786 151.22 122.385 151.22 121.94H150.92H150.62C150.62 122.311 150.551 122.613 150.425 122.857L150.692 122.994ZM150.92 121.94H151.22C151.22 121.495 151.137 121.091 150.96 120.737L150.692 120.871L150.423 121.006C150.551 121.261 150.62 121.57 150.62 121.94H150.92ZM150.692 120.871L150.96 120.737C150.776 120.368 150.481 120.088 150.094 119.897L149.961 120.165L149.828 120.434C150.11 120.574 150.303 120.765 150.423 121.006L150.692 120.871ZM149.961 120.165L150.096 119.898C149.705 119.7 149.21 119.612 148.634 119.612V119.912V120.212C149.157 120.212 149.548 120.293 149.826 120.433L149.961 120.165ZM148.634 119.912V119.612H146.466V119.912V120.212H148.634V119.912ZM146.466 119.912H146.166V129H146.466H146.766V119.912H146.466ZM146.466 129V128.7H145.233V129V129.3H146.466V129ZM150.026 124.426L149.762 124.57L152.268 129.144L152.531 129L152.794 128.856L150.289 124.282L150.026 124.426ZM152.531 129V128.7H151.099V129V129.3H152.531V129ZM151.099 129L151.364 128.858L148.898 124.284L148.634 124.426L148.369 124.569L150.835 129.142L151.099 129ZM148.634 124.426V124.726H150.026V124.426V124.126H148.634V124.426Z" fill="#FCC61D" mask="url(#path-33-outside-3_7_19)"/>
<mask id="path-35-outside-4_7_19" maskUnits="userSpaceOnUse" x="153" y="121" width="9" height="13" fill="black">
<rect fill="white" x="153" y="121" width="9" height="13"/>
<path d="M154.074 132.864V122.364H155.207V123.577H155.347C155.433 123.444 155.552 123.275 155.705 123.07C155.86 122.861 156.082 122.675 156.371 122.513C156.662 122.347 157.057 122.264 157.554 122.264C158.197 122.264 158.764 122.425 159.254 122.746C159.745 123.068 160.128 123.524 160.403 124.114C160.678 124.704 160.815 125.4 160.815 126.202C160.815 127.01 160.678 127.711 160.403 128.305C160.128 128.895 159.746 129.352 159.259 129.677C158.772 129.998 158.21 130.159 157.574 130.159C157.083 130.159 156.691 130.078 156.396 129.915C156.101 129.75 155.874 129.562 155.714 129.354C155.555 129.142 155.433 128.966 155.347 128.827H155.247V132.864H154.074ZM155.227 126.182C155.227 126.759 155.312 127.267 155.481 127.708C155.65 128.146 155.897 128.489 156.222 128.737C156.546 128.982 156.944 129.105 157.415 129.105C157.905 129.105 158.315 128.976 158.643 128.717C158.974 128.455 159.223 128.104 159.388 127.663C159.558 127.219 159.642 126.725 159.642 126.182C159.642 125.645 159.559 125.161 159.393 124.73C159.231 124.296 158.984 123.953 158.653 123.701C158.325 123.446 157.912 123.318 157.415 123.318C156.938 123.318 156.536 123.439 156.212 123.681C155.887 123.92 155.642 124.254 155.476 124.685C155.31 125.113 155.227 125.612 155.227 126.182Z"/>
</mask>
<path d="M154.074 132.864V122.364H155.207V123.577H155.347C155.433 123.444 155.552 123.275 155.705 123.07C155.86 122.861 156.082 122.675 156.371 122.513C156.662 122.347 157.057 122.264 157.554 122.264C158.197 122.264 158.764 122.425 159.254 122.746C159.745 123.068 160.128 123.524 160.403 124.114C160.678 124.704 160.815 125.4 160.815 126.202C160.815 127.01 160.678 127.711 160.403 128.305C160.128 128.895 159.746 129.352 159.259 129.677C158.772 129.998 158.21 130.159 157.574 130.159C157.083 130.159 156.691 130.078 156.396 129.915C156.101 129.75 155.874 129.562 155.714 129.354C155.555 129.142 155.433 128.966 155.347 128.827H155.247V132.864H154.074ZM155.227 126.182C155.227 126.759 155.312 127.267 155.481 127.708C155.65 128.146 155.897 128.489 156.222 128.737C156.546 128.982 156.944 129.105 157.415 129.105C157.905 129.105 158.315 128.976 158.643 128.717C158.974 128.455 159.223 128.104 159.388 127.663C159.558 127.219 159.642 126.725 159.642 126.182C159.642 125.645 159.559 125.161 159.393 124.73C159.231 124.296 158.984 123.953 158.653 123.701C158.325 123.446 157.912 123.318 157.415 123.318C156.938 123.318 156.536 123.439 156.212 123.681C155.887 123.92 155.642 124.254 155.476 124.685C155.31 125.113 155.227 125.612 155.227 126.182Z" fill="#FCC61D"/>
<path d="M154.074 132.864H153.774V133.164H154.074V132.864ZM154.074 122.364V122.064H153.774V122.364H154.074ZM155.207 122.364H155.507V122.064H155.207V122.364ZM155.207 123.577H154.907V123.877H155.207V123.577ZM155.347 123.577V123.877H155.509L155.598 123.74L155.347 123.577ZM155.705 123.07L155.464 122.89L155.464 122.891L155.705 123.07ZM156.371 122.513L156.518 122.774L156.519 122.774L156.371 122.513ZM159.254 122.746L159.419 122.496L159.254 122.746ZM160.403 124.114L160.675 123.987L160.403 124.114ZM160.403 128.305L160.675 128.431L160.675 128.431L160.403 128.305ZM159.259 129.677L159.424 129.927L159.426 129.926L159.259 129.677ZM156.396 129.915L156.249 130.177L156.251 130.178L156.396 129.915ZM155.714 129.354L155.474 129.534L155.476 129.536L155.714 129.354ZM155.347 128.827L155.602 128.669L155.514 128.527H155.347V128.827ZM155.247 128.827V128.527H154.947V128.827H155.247ZM155.247 132.864V133.164H155.547V132.864H155.247ZM155.481 127.708L155.201 127.816L155.201 127.816L155.481 127.708ZM156.222 128.737L156.039 128.975L156.041 128.977L156.222 128.737ZM158.643 128.717L158.828 128.953L158.829 128.953L158.643 128.717ZM159.388 127.663L159.108 127.557L159.108 127.558L159.388 127.663ZM159.393 124.73L159.112 124.835L159.113 124.838L159.393 124.73ZM158.653 123.701L158.469 123.938L158.471 123.94L158.653 123.701ZM156.212 123.681L156.389 123.923L156.391 123.922L156.212 123.681ZM155.476 124.685L155.756 124.794L155.756 124.793L155.476 124.685ZM154.074 132.864H154.374V122.364H154.074H153.774V132.864H154.074ZM154.074 122.364V122.664H155.207V122.364V122.064H154.074V122.364ZM155.207 122.364H154.907V123.577H155.207H155.507V122.364H155.207ZM155.207 123.577V123.877H155.347V123.577V123.277H155.207V123.577ZM155.347 123.577L155.598 123.74C155.68 123.615 155.795 123.452 155.945 123.248L155.705 123.07L155.464 122.891C155.309 123.099 155.186 123.273 155.095 123.413L155.347 123.577ZM155.705 123.07L155.945 123.249C156.07 123.081 156.257 122.921 156.518 122.774L156.371 122.513L156.224 122.251C155.908 122.429 155.651 122.64 155.464 122.89L155.705 123.07ZM156.371 122.513L156.519 122.774C156.749 122.643 157.086 122.564 157.554 122.564V122.264V121.964C157.028 121.964 156.576 122.051 156.223 122.252L156.371 122.513ZM157.554 122.264V122.564C158.144 122.564 158.653 122.711 159.09 122.997L159.254 122.746L159.419 122.496C158.875 122.139 158.25 121.964 157.554 121.964V122.264ZM159.254 122.746L159.09 122.997C159.529 123.285 159.877 123.695 160.131 124.24L160.403 124.114L160.675 123.987C160.379 123.352 159.961 122.851 159.419 122.496L159.254 122.746ZM160.403 124.114L160.131 124.24C160.384 124.783 160.515 125.433 160.515 126.202H160.815H161.115C161.115 125.366 160.972 124.625 160.675 123.987L160.403 124.114ZM160.815 126.202H160.515C160.515 126.977 160.383 127.633 160.131 128.178L160.403 128.305L160.675 128.431C160.972 127.79 161.115 127.044 161.115 126.202H160.815ZM160.403 128.305L160.131 128.178C159.876 128.724 159.529 129.136 159.093 129.427L159.259 129.677L159.426 129.926C159.964 129.568 160.379 129.066 160.675 128.431L160.403 128.305ZM159.259 129.677L159.094 129.426C158.66 129.713 158.157 129.859 157.574 129.859V130.159V130.459C158.263 130.459 158.884 130.284 159.424 129.927L159.259 129.677ZM157.574 130.159V129.859C157.112 129.859 156.775 129.782 156.54 129.653L156.396 129.915L156.251 130.178C156.606 130.374 157.054 130.459 157.574 130.459V130.159ZM156.396 129.915L156.543 129.654C156.273 129.503 156.081 129.34 155.953 129.172L155.714 129.354L155.476 129.536C155.666 129.785 155.928 129.997 156.249 130.177L156.396 129.915ZM155.714 129.354L155.954 129.174C155.798 128.965 155.681 128.797 155.602 128.669L155.347 128.827L155.092 128.985C155.184 129.135 155.313 129.318 155.474 129.534L155.714 129.354ZM155.347 128.827V128.527H155.247V128.827V129.127H155.347V128.827ZM155.247 128.827H154.947V132.864H155.247H155.547V128.827H155.247ZM155.247 132.864V132.564H154.074V132.864V133.164H155.247V132.864ZM155.227 126.182H154.927C154.927 126.787 155.016 127.334 155.201 127.816L155.481 127.708L155.761 127.601C155.608 127.201 155.527 126.73 155.527 126.182H155.227ZM155.481 127.708L155.201 127.816C155.387 128.298 155.664 128.689 156.039 128.975L156.222 128.737L156.404 128.499C156.129 128.289 155.913 127.994 155.761 127.6L155.481 127.708ZM156.222 128.737L156.041 128.977C156.426 129.267 156.89 129.405 157.415 129.405V129.105V128.805C156.999 128.805 156.667 128.698 156.402 128.498L156.222 128.737ZM157.415 129.105V129.405C157.96 129.405 158.439 129.26 158.828 128.953L158.643 128.717L158.457 128.482C158.191 128.692 157.85 128.805 157.415 128.805V129.105ZM158.643 128.717L158.829 128.953C159.208 128.653 159.487 128.255 159.669 127.769L159.388 127.663L159.108 127.558C158.959 127.954 158.741 128.258 158.457 128.482L158.643 128.717ZM159.388 127.663L159.669 127.77C159.853 127.287 159.942 126.757 159.942 126.182H159.642H159.342C159.342 126.694 159.262 127.151 159.108 127.557L159.388 127.663ZM159.642 126.182H159.942C159.942 125.614 159.854 125.093 159.673 124.622L159.393 124.73L159.113 124.838C159.264 125.229 159.342 125.676 159.342 126.182H159.642ZM159.393 124.73L159.674 124.625C159.495 124.144 159.216 123.752 158.834 123.462L158.653 123.701L158.471 123.94C158.752 124.154 158.968 124.448 159.112 124.835L159.393 124.73ZM158.653 123.701L158.837 123.464C158.446 123.16 157.965 123.018 157.415 123.018V123.318V123.618C157.859 123.618 158.203 123.731 158.469 123.938L158.653 123.701ZM157.415 123.318V123.018C156.885 123.018 156.418 123.153 156.032 123.441L156.212 123.681L156.391 123.922C156.655 123.725 156.99 123.618 157.415 123.618V123.318ZM156.212 123.681L156.034 123.439C155.657 123.717 155.379 124.101 155.196 124.578L155.476 124.685L155.756 124.793C155.904 124.408 156.117 124.123 156.389 123.923L156.212 123.681ZM155.476 124.685L155.196 124.577C155.014 125.046 154.927 125.583 154.927 126.182H155.227H155.527C155.527 125.64 155.606 125.179 155.756 124.794L155.476 124.685Z" fill="#FCC61D" mask="url(#path-35-outside-4_7_19)"/>
<defs>
<linearGradient id="paint0_linear_7_19" x1="1.99998" y1="81.3212" x2="206.974" y2="-66.0339" gradientUnits="userSpaceOnUse">
<stop stop-color="#EBEA31"/>
<stop offset="1" stop-color="#F3B82C"/>
</linearGradient>
<linearGradient id="paint1_linear_7_19" x1="194.796" y1="14" x2="267.144" y2="219.24" gradientUnits="userSpaceOnUse">
<stop stop-color="#EBEA31"/>
<stop offset="1" stop-color="#F3B82C"/>
</linearGradient>
<linearGradient id="paint2_linear_7_19" x1="296.962" y1="174.959" x2="39.2622" y2="297.828" gradientUnits="userSpaceOnUse">
<stop offset="0.192308" stop-color="#122E96"/>
<stop offset="0.495192" stop-color="#4465EA"/>
<stop offset="1" stop-color="#041F7A"/>
</linearGradient>
<linearGradient id="paint3_linear_7_19" x1="115.247" y1="274.322" x2="45.5621" y2="60.5873" gradientUnits="userSpaceOnUse">
<stop stop-color="#4D70FC"/>
<stop offset="1" stop-color="#041F7A"/>
</linearGradient>
</defs>
</svg>
