<svg width="273" height="143" viewBox="0 0 273 143" fill="none" xmlns="http://www.w3.org/2000/svg">
<path d="M48.5 81.7103L58.0691 86.4378L67.0691 91.9378L67.0691 93.4378L56.5691 88.9378L45 85.2103L46.5691 83.9378C47.7736 83.0299 48 82.2102 48.5 81.7103Z" fill="#3F51B5"/>
<path d="M18.4257 91.4476C18.2387 91.2606 18.3106 90.9422 18.5609 90.8567C20.1787 90.3039 25.0398 88.5956 28.0181 87.04C32.0734 84.9219 33.5181 83.04 37.0181 80.04C41.9484 75.814 47.7234 68.2444 50.2389 64.8151C50.9351 63.866 52.2934 63.6961 53.1919 64.4564L56.5115 67.2653C57.3468 67.972 57.4603 69.2146 56.7544 70.0507C54.4473 72.7836 49.3448 78.7133 44.5181 83.54C41.058 87.0001 38.161 88.495 33.5181 90.04C31.0462 90.8626 29.6022 91.2097 27.0181 91.54C24.0325 91.9216 19.4727 91.6112 18.6482 91.55C18.564 91.5437 18.4853 91.5073 18.4257 91.4476Z" fill="#3338A0"/>
<mask id="path-3-outside-1_3_97" maskUnits="userSpaceOnUse" x="15" y="102" width="57" height="20" fill="black">
<rect fill="white" x="15" y="102" width="57" height="20"/>
<path d="M16.2017 121V102.818H22.5582C23.8248 102.818 24.8694 103.037 25.6921 103.475C26.5148 103.907 27.1274 104.49 27.5298 105.224C27.9323 105.952 28.1335 106.76 28.1335 107.648C28.1335 108.429 27.9944 109.074 27.7163 109.583C27.444 110.092 27.083 110.495 26.6332 110.79C26.1893 111.086 25.7069 111.305 25.1861 111.447V111.625C25.7424 111.661 26.3017 111.856 26.864 112.211C27.4263 112.566 27.8968 113.075 28.2756 113.738C28.6544 114.401 28.8438 115.212 28.8438 116.17C28.8438 117.082 28.6366 117.902 28.2223 118.63C27.808 119.358 27.154 119.935 26.2603 120.361C25.3666 120.787 24.2036 121 22.7713 121H16.2017ZM18.4034 119.047H22.7713C24.2095 119.047 25.2305 118.769 25.8342 118.212C26.4438 117.65 26.7486 116.969 26.7486 116.17C26.7486 115.555 26.5917 114.987 26.2781 114.466C25.9644 113.939 25.5175 113.519 24.9375 113.205C24.3575 112.886 23.6709 112.726 22.8778 112.726H18.4034V119.047ZM18.4034 110.808H22.4872C23.1501 110.808 23.7479 110.678 24.2805 110.418C24.8191 110.157 25.2453 109.79 25.5589 109.317C25.8786 108.843 26.0384 108.287 26.0384 107.648C26.0384 106.849 25.7602 106.171 25.2038 105.615C24.6475 105.052 23.7656 104.771 22.5582 104.771H18.4034V110.808ZM40.7711 115.425V107.364H42.8663V121H40.7711V118.692H40.6291C40.3095 119.384 39.8123 119.973 39.1376 120.458C38.4629 120.938 37.6106 121.178 36.5808 121.178C35.7285 121.178 34.9709 120.991 34.3081 120.618C33.6452 120.239 33.1243 119.671 32.7456 118.914C32.3668 118.15 32.1774 117.188 32.1774 116.028V107.364H34.2725V115.886C34.2725 116.881 34.5507 117.674 35.1071 118.266C35.6693 118.857 36.3855 119.153 37.2555 119.153C37.7763 119.153 38.306 119.02 38.8446 118.754C39.3891 118.488 39.8449 118.079 40.2118 117.529C40.5847 116.978 40.7711 116.277 40.7711 115.425ZM48.6569 116.028L48.6214 113.436H49.0475L55.0134 107.364H57.6057L51.2492 113.791H51.0716L48.6569 116.028ZM46.7037 121V102.818H48.7989V121H46.7037ZM55.3685 121L50.0418 114.253L51.5333 112.797L58.0319 121H55.3685ZM64.3152 121.32C63.4511 121.32 62.6668 121.157 61.9625 120.831C61.2582 120.5 60.6989 120.023 60.2846 119.402C59.8703 118.775 59.6632 118.017 59.6632 117.129C59.6632 116.348 59.8171 115.715 60.1248 115.229C60.4326 114.738 60.8439 114.353 61.3588 114.075C61.8738 113.797 62.4419 113.59 63.0634 113.454C63.6908 113.312 64.3211 113.199 64.9544 113.116C65.783 113.01 66.4547 112.93 66.9696 112.877C67.4905 112.818 67.8693 112.72 68.106 112.584C68.3487 112.448 68.47 112.211 68.47 111.874V111.803C68.47 110.927 68.2303 110.246 67.7509 109.761C67.2774 109.275 66.5583 109.033 65.5936 109.033C64.5933 109.033 63.8091 109.252 63.2409 109.69C62.6728 110.128 62.2733 110.595 62.0424 111.092L60.0538 110.382C60.4089 109.554 60.8824 108.908 61.4743 108.447C62.072 107.979 62.7231 107.654 63.4274 107.47C64.1376 107.281 64.836 107.186 65.5225 107.186C65.9605 107.186 66.4636 107.239 67.0318 107.346C67.6059 107.446 68.1593 107.657 68.6919 107.976C69.2305 108.296 69.6774 108.778 70.0325 109.423C70.3876 110.068 70.5652 110.933 70.5652 112.016V121H68.47V119.153H68.3635C68.2214 119.449 67.9847 119.766 67.6532 120.103C67.3218 120.441 66.8809 120.728 66.3304 120.964C65.78 121.201 65.1083 121.32 64.3152 121.32ZM64.6348 119.438C65.4634 119.438 66.1618 119.275 66.7299 118.949C67.304 118.624 67.7361 118.203 68.0261 117.689C68.322 117.174 68.47 116.632 68.47 116.064V114.146C68.3812 114.253 68.1859 114.35 67.8841 114.439C67.5881 114.522 67.2449 114.596 66.8542 114.661C66.4695 114.72 66.0937 114.774 65.7267 114.821C65.3657 114.862 65.0727 114.898 64.8478 114.928C64.3033 114.999 63.7943 115.114 63.3208 115.274C62.8533 115.428 62.4745 115.661 62.1845 115.975C61.9004 116.283 61.7583 116.703 61.7583 117.236C61.7583 117.964 62.0276 118.514 62.5662 118.887C63.1107 119.254 63.8002 119.438 64.6348 119.438Z"/>
</mask>
<path d="M16.2017 121V102.818H22.5582C23.8248 102.818 24.8694 103.037 25.6921 103.475C26.5148 103.907 27.1274 104.49 27.5298 105.224C27.9323 105.952 28.1335 106.76 28.1335 107.648C28.1335 108.429 27.9944 109.074 27.7163 109.583C27.444 110.092 27.083 110.495 26.6332 110.79C26.1893 111.086 25.7069 111.305 25.1861 111.447V111.625C25.7424 111.661 26.3017 111.856 26.864 112.211C27.4263 112.566 27.8968 113.075 28.2756 113.738C28.6544 114.401 28.8438 115.212 28.8438 116.17C28.8438 117.082 28.6366 117.902 28.2223 118.63C27.808 119.358 27.154 119.935 26.2603 120.361C25.3666 120.787 24.2036 121 22.7713 121H16.2017ZM18.4034 119.047H22.7713C24.2095 119.047 25.2305 118.769 25.8342 118.212C26.4438 117.65 26.7486 116.969 26.7486 116.17C26.7486 115.555 26.5917 114.987 26.2781 114.466C25.9644 113.939 25.5175 113.519 24.9375 113.205C24.3575 112.886 23.6709 112.726 22.8778 112.726H18.4034V119.047ZM18.4034 110.808H22.4872C23.1501 110.808 23.7479 110.678 24.2805 110.418C24.8191 110.157 25.2453 109.79 25.5589 109.317C25.8786 108.843 26.0384 108.287 26.0384 107.648C26.0384 106.849 25.7602 106.171 25.2038 105.615C24.6475 105.052 23.7656 104.771 22.5582 104.771H18.4034V110.808ZM40.7711 115.425V107.364H42.8663V121H40.7711V118.692H40.6291C40.3095 119.384 39.8123 119.973 39.1376 120.458C38.4629 120.938 37.6106 121.178 36.5808 121.178C35.7285 121.178 34.9709 120.991 34.3081 120.618C33.6452 120.239 33.1243 119.671 32.7456 118.914C32.3668 118.15 32.1774 117.188 32.1774 116.028V107.364H34.2725V115.886C34.2725 116.881 34.5507 117.674 35.1071 118.266C35.6693 118.857 36.3855 119.153 37.2555 119.153C37.7763 119.153 38.306 119.02 38.8446 118.754C39.3891 118.488 39.8449 118.079 40.2118 117.529C40.5847 116.978 40.7711 116.277 40.7711 115.425ZM48.6569 116.028L48.6214 113.436H49.0475L55.0134 107.364H57.6057L51.2492 113.791H51.0716L48.6569 116.028ZM46.7037 121V102.818H48.7989V121H46.7037ZM55.3685 121L50.0418 114.253L51.5333 112.797L58.0319 121H55.3685ZM64.3152 121.32C63.4511 121.32 62.6668 121.157 61.9625 120.831C61.2582 120.5 60.6989 120.023 60.2846 119.402C59.8703 118.775 59.6632 118.017 59.6632 117.129C59.6632 116.348 59.8171 115.715 60.1248 115.229C60.4326 114.738 60.8439 114.353 61.3588 114.075C61.8738 113.797 62.4419 113.59 63.0634 113.454C63.6908 113.312 64.3211 113.199 64.9544 113.116C65.783 113.01 66.4547 112.93 66.9696 112.877C67.4905 112.818 67.8693 112.72 68.106 112.584C68.3487 112.448 68.47 112.211 68.47 111.874V111.803C68.47 110.927 68.2303 110.246 67.7509 109.761C67.2774 109.275 66.5583 109.033 65.5936 109.033C64.5933 109.033 63.8091 109.252 63.2409 109.69C62.6728 110.128 62.2733 110.595 62.0424 111.092L60.0538 110.382C60.4089 109.554 60.8824 108.908 61.4743 108.447C62.072 107.979 62.7231 107.654 63.4274 107.47C64.1376 107.281 64.836 107.186 65.5225 107.186C65.9605 107.186 66.4636 107.239 67.0318 107.346C67.6059 107.446 68.1593 107.657 68.6919 107.976C69.2305 108.296 69.6774 108.778 70.0325 109.423C70.3876 110.068 70.5652 110.933 70.5652 112.016V121H68.47V119.153H68.3635C68.2214 119.449 67.9847 119.766 67.6532 120.103C67.3218 120.441 66.8809 120.728 66.3304 120.964C65.78 121.201 65.1083 121.32 64.3152 121.32ZM64.6348 119.438C65.4634 119.438 66.1618 119.275 66.7299 118.949C67.304 118.624 67.7361 118.203 68.0261 117.689C68.322 117.174 68.47 116.632 68.47 116.064V114.146C68.3812 114.253 68.1859 114.35 67.8841 114.439C67.5881 114.522 67.2449 114.596 66.8542 114.661C66.4695 114.72 66.0937 114.774 65.7267 114.821C65.3657 114.862 65.0727 114.898 64.8478 114.928C64.3033 114.999 63.7943 115.114 63.3208 115.274C62.8533 115.428 62.4745 115.661 62.1845 115.975C61.9004 116.283 61.7583 116.703 61.7583 117.236C61.7583 117.964 62.0276 118.514 62.5662 118.887C63.1107 119.254 63.8002 119.438 64.6348 119.438Z" fill="#3338A0"/>
<path d="M16.2017 121H15.7017V121.5H16.2017V121ZM16.2017 102.818V102.318H15.7017V102.818H16.2017ZM25.6921 103.475L25.4571 103.917L25.4596 103.918L25.6921 103.475ZM27.5298 105.224L27.0914 105.464L27.0922 105.466L27.5298 105.224ZM27.7163 109.583L27.2775 109.343L27.2754 109.347L27.7163 109.583ZM26.6332 110.79L26.3584 110.373L26.3558 110.374L26.6332 110.79ZM25.1861 111.447L25.0545 110.965L24.6861 111.066V111.447H25.1861ZM25.1861 111.625H24.6861V112.094L25.1542 112.124L25.1861 111.625ZM26.864 112.211L26.597 112.634L26.864 112.211ZM28.2223 118.63L28.6569 118.877L28.2223 118.63ZM26.2603 120.361L26.0451 119.909L26.2603 120.361ZM18.4034 119.047H17.9034V119.547H18.4034V119.047ZM25.8342 118.212L26.173 118.58L26.1732 118.58L25.8342 118.212ZM26.2781 114.466L25.8485 114.722L25.8497 114.724L26.2781 114.466ZM24.9375 113.205L24.6962 113.643L24.6996 113.645L24.9375 113.205ZM18.4034 112.726V112.226H17.9034V112.726H18.4034ZM18.4034 110.808H17.9034V111.308H18.4034V110.808ZM24.2805 110.418L24.0629 109.967L24.0609 109.968L24.2805 110.418ZM25.5589 109.317L25.1445 109.037L25.1421 109.041L25.5589 109.317ZM25.2038 105.615L24.8484 105.966L24.8503 105.968L25.2038 105.615ZM18.4034 104.771V104.271H17.9034V104.771H18.4034ZM16.2017 121H16.7017V102.818H16.2017H15.7017V121H16.2017ZM16.2017 102.818V103.318H22.5582V102.818V102.318H16.2017V102.818ZM22.5582 102.818V103.318C23.7709 103.318 24.7281 103.528 25.4572 103.916L25.6921 103.475L25.9271 103.034C25.0108 102.546 23.8787 102.318 22.5582 102.318V102.818ZM25.6921 103.475L25.4596 103.918C26.2052 104.309 26.7414 104.826 27.0914 105.464L27.5298 105.224L27.9682 104.984C27.5134 104.154 26.8244 103.505 25.9246 103.032L25.6921 103.475ZM27.5298 105.224L27.0922 105.466C27.451 106.115 27.6335 106.839 27.6335 107.648H28.1335H28.6335C28.6335 106.681 28.4136 105.789 27.9674 104.982L27.5298 105.224ZM28.1335 107.648H27.6335C27.6335 108.373 27.504 108.929 27.2775 109.343L27.7163 109.583L28.155 109.823C28.4849 109.219 28.6335 108.485 28.6335 107.648H28.1335ZM27.7163 109.583L27.2754 109.347C27.0395 109.788 26.7335 110.126 26.3584 110.373L26.6332 110.79L26.908 111.208C27.4324 110.863 27.8485 110.396 28.1572 109.819L27.7163 109.583ZM26.6332 110.79L26.3558 110.374C25.9572 110.64 25.5241 110.837 25.0545 110.965L25.1861 111.447L25.3176 111.93C25.8897 111.774 26.4214 111.533 26.9105 111.207L26.6332 110.79ZM25.1861 111.447H24.6861V111.625H25.1861H25.6861V111.447H25.1861ZM25.1861 111.625L25.1542 112.124C25.6123 112.153 26.0919 112.315 26.597 112.634L26.864 112.211L27.131 111.788C26.5116 111.397 25.8725 111.168 25.2179 111.126L25.1861 111.625ZM26.864 112.211L26.597 112.634C27.0805 112.939 27.4972 113.384 27.8414 113.986L28.2756 113.738L28.7097 113.49C28.2964 112.767 27.772 112.193 27.131 111.788L26.864 112.211ZM28.2756 113.738L27.8414 113.986C28.1673 114.556 28.3438 115.277 28.3438 116.17H28.8438H29.3438C29.3438 115.147 29.1414 114.245 28.7097 113.49L28.2756 113.738ZM28.8438 116.17H28.3438C28.3438 117.003 28.1554 117.736 27.7877 118.382L28.2223 118.63L28.6569 118.877C29.1178 118.067 29.3438 117.161 29.3438 116.17H28.8438ZM28.2223 118.63L27.7877 118.382C27.4327 119.006 26.8638 119.519 26.0451 119.909L26.2603 120.361L26.4755 120.812C27.4442 120.35 28.1833 119.709 28.6569 118.877L28.2223 118.63ZM26.2603 120.361L26.0451 119.909C25.2417 120.293 24.1599 120.5 22.7713 120.5V121V121.5C24.2473 121.5 25.4914 121.281 26.4755 120.812L26.2603 120.361ZM22.7713 121V120.5H16.2017V121V121.5H22.7713V121ZM18.4034 119.047V119.547H22.7713V119.047V118.547H18.4034V119.047ZM22.7713 119.047V119.547C24.2488 119.547 25.4288 119.266 26.173 118.58L25.8342 118.212L25.4953 117.845C25.0322 118.271 24.1702 118.547 22.7713 118.547V119.047ZM25.8342 118.212L26.1732 118.58C26.881 117.927 27.2486 117.115 27.2486 116.17H26.7486H26.2486C26.2486 116.824 26.0066 117.373 25.4952 117.845L25.8342 118.212ZM26.7486 116.17H27.2486C27.2486 115.465 27.0676 114.808 26.7064 114.208L26.2781 114.466L25.8497 114.724C26.1159 115.166 26.2486 115.645 26.2486 116.17H26.7486ZM26.2781 114.466L26.7077 114.21C26.3443 113.6 25.8285 113.119 25.1754 112.765L24.9375 113.205L24.6996 113.645C25.2065 113.919 25.5844 114.278 25.8485 114.722L26.2781 114.466ZM24.9375 113.205L25.1788 112.767C24.5116 112.4 23.7387 112.226 22.8778 112.226V112.726V113.226C23.6032 113.226 24.2034 113.372 24.6962 113.643L24.9375 113.205ZM22.8778 112.726V112.226H18.4034V112.726V113.226H22.8778V112.726ZM18.4034 112.726H17.9034V119.047H18.4034H18.9034V112.726H18.4034ZM18.4034 110.808V111.308H22.4872V110.808V110.308H18.4034V110.808ZM22.4872 110.808V111.308C23.2171 111.308 23.8914 111.164 24.5001 110.867L24.2805 110.418L24.0609 109.968C23.6043 110.192 23.083 110.308 22.4872 110.308V110.808ZM24.2805 110.418L24.4982 110.868C25.1131 110.57 25.6098 110.145 25.9758 109.593L25.5589 109.317L25.1421 109.041C24.8807 109.435 24.5252 109.744 24.0629 109.967L24.2805 110.418ZM25.5589 109.317L25.9734 109.596C26.3553 109.031 26.5384 108.374 26.5384 107.648H26.0384H25.5384C25.5384 108.2 25.4018 108.656 25.1445 109.037L25.5589 109.317ZM26.0384 107.648H26.5384C26.5384 106.718 26.2091 105.913 25.5574 105.261L25.2038 105.615L24.8503 105.968C25.3112 106.429 25.5384 106.979 25.5384 107.648H26.0384ZM25.2038 105.615L25.5593 105.263C24.8696 104.566 23.8301 104.271 22.5582 104.271V104.771V105.271C23.7012 105.271 24.4254 105.539 24.8484 105.966L25.2038 105.615ZM22.5582 104.771V104.271H18.4034V104.771V105.271H22.5582V104.771ZM18.4034 104.771H17.9034V110.808H18.4034H18.9034V104.771H18.4034ZM40.7711 107.364V106.864H40.2711V107.364H40.7711ZM42.8663 107.364H43.3663V106.864H42.8663V107.364ZM42.8663 121V121.5H43.3663V121H42.8663ZM40.7711 121H40.2711V121.5H40.7711V121ZM40.7711 118.692H41.2711V118.192H40.7711V118.692ZM40.6291 118.692V118.192H40.3092L40.1751 118.482L40.6291 118.692ZM39.1376 120.458L39.4272 120.866L39.4296 120.864L39.1376 120.458ZM34.3081 120.618L34.06 121.052L34.0629 121.054L34.3081 120.618ZM32.7456 118.914L32.2977 119.136L32.2983 119.137L32.7456 118.914ZM32.1774 107.364V106.864H31.6774V107.364H32.1774ZM34.2726 107.364H34.7726V106.864H34.2726V107.364ZM35.1071 118.266L34.7427 118.608L34.7446 118.61L35.1071 118.266ZM38.8446 118.754L38.6249 118.305L38.623 118.306L38.8446 118.754ZM40.2118 117.529L39.7979 117.248L39.7958 117.251L40.2118 117.529ZM40.7711 115.425H41.2711V107.364H40.7711H40.2711V115.425H40.7711ZM40.7711 107.364V107.864H42.8663V107.364V106.864H40.7711V107.364ZM42.8663 107.364H42.3663V121H42.8663H43.3663V107.364H42.8663ZM42.8663 121V120.5H40.7711V121V121.5H42.8663V121ZM40.7711 121H41.2711V118.692H40.7711H40.2711V121H40.7711ZM40.7711 118.692V118.192H40.6291V118.692V119.192H40.7711V118.692ZM40.6291 118.692L40.1751 118.482C39.8949 119.089 39.4568 119.613 38.8456 120.053L39.1376 120.458L39.4296 120.864C40.1679 120.333 40.7241 119.679 41.0831 118.901L40.6291 118.692ZM39.1376 120.458L38.848 120.051C38.2766 120.457 37.5324 120.678 36.5808 120.678V121.178V121.678C37.6888 121.678 38.6492 121.419 39.4272 120.866L39.1376 120.458ZM36.5808 121.178V120.678C35.8038 120.678 35.1325 120.508 34.5532 120.182L34.3081 120.618L34.0629 121.054C34.8093 121.474 35.6532 121.678 36.5808 121.678V121.178ZM34.3081 120.618L34.5561 120.184C33.9882 119.86 33.5324 119.369 33.1928 118.69L32.7456 118.914L32.2983 119.137C32.7163 119.973 33.3022 120.619 34.06 121.052L34.3081 120.618ZM32.7456 118.914L33.1935 118.691C32.859 118.017 32.6774 117.138 32.6774 116.028H32.1774H31.6774C31.6774 117.239 31.8745 118.283 32.2977 119.136L32.7456 118.914ZM32.1774 116.028H32.6774V107.364H32.1774H31.6774V116.028H32.1774ZM32.1774 107.364V107.864H34.2726V107.364V106.864H32.1774V107.364ZM34.2726 107.364H33.7726V115.886H34.2726H34.7726V107.364H34.2726ZM34.2726 115.886H33.7726C33.7726 116.978 34.0806 117.904 34.7428 118.608L35.1071 118.266L35.4714 117.923C35.0208 117.444 34.7726 116.783 34.7726 115.886H34.2726ZM35.1071 118.266L34.7446 118.61C35.4079 119.308 36.2585 119.653 37.2555 119.653V119.153V118.653C36.5125 118.653 35.9307 118.407 35.4696 117.921L35.1071 118.266ZM37.2555 119.153V119.653C37.8642 119.653 38.4694 119.497 39.0663 119.202L38.8446 118.754L38.623 118.306C38.1427 118.543 37.6885 118.653 37.2555 118.653V119.153ZM38.8446 118.754L39.0643 119.203C39.6955 118.894 40.2164 118.423 40.6279 117.806L40.2118 117.529L39.7958 117.251C39.4733 117.735 39.0828 118.081 38.6249 118.305L38.8446 118.754ZM40.2118 117.529L40.6258 117.809C41.0686 117.155 41.2711 116.349 41.2711 115.425H40.7711H40.2711C40.2711 116.205 40.1008 116.801 39.7979 117.248L40.2118 117.529ZM48.6569 116.028L48.1569 116.035L48.1723 117.159L48.9967 116.395L48.6569 116.028ZM48.6214 113.436V112.936H48.1145L48.1214 113.443L48.6214 113.436ZM49.0475 113.436V113.936H49.2572L49.4042 113.786L49.0475 113.436ZM55.0134 107.364V106.864H54.8037L54.6567 107.013L55.0134 107.364ZM57.6057 107.364L57.9612 107.715L58.8034 106.864H57.6057V107.364ZM51.2492 113.791V114.291H51.4579L51.6047 114.143L51.2492 113.791ZM51.0716 113.791V113.291H50.8756L50.7318 113.424L51.0716 113.791ZM46.7037 121H46.2037V121.5H46.7037V121ZM46.7037 102.818V102.318H46.2037V102.818H46.7037ZM48.7989 102.818H49.2989V102.318H48.7989V102.818ZM48.7989 121V121.5H49.2989V121H48.7989ZM55.3685 121L54.9761 121.31L55.1262 121.5H55.3685V121ZM50.0418 114.253L49.6925 113.895L49.3705 114.209L49.6494 114.563L50.0418 114.253ZM51.5333 112.797L51.9252 112.486L51.5809 112.052L51.184 112.439L51.5333 112.797ZM58.0319 121V121.5H59.0659L58.4238 120.69L58.0319 121ZM48.6569 116.028L49.1568 116.022L49.1213 113.429L48.6214 113.436L48.1214 113.443L48.1569 116.035L48.6569 116.028ZM48.6214 113.436V113.936H49.0475V113.436V112.936H48.6214V113.436ZM49.0475 113.436L49.4042 113.786L55.3701 107.714L55.0134 107.364L54.6567 107.013L48.6908 113.086L49.0475 113.436ZM55.0134 107.364V107.864H57.6057V107.364V106.864H55.0134V107.364ZM57.6057 107.364L57.2502 107.012L50.8937 113.44L51.2492 113.791L51.6047 114.143L57.9612 107.715L57.6057 107.364ZM51.2492 113.791V113.291H51.0716V113.791V114.291H51.2492V113.791ZM51.0716 113.791L50.7318 113.424L48.3171 115.662L48.6569 116.028L48.9967 116.395L51.4115 114.158L51.0716 113.791ZM46.7037 121H47.2037V102.818H46.7037H46.2037V121H46.7037ZM46.7037 102.818V103.318H48.7989V102.818V102.318H46.7037V102.818ZM48.7989 102.818H48.2989V121H48.7989H49.2989V102.818H48.7989ZM48.7989 121V120.5H46.7037V121V121.5H48.7989V121ZM55.3685 121L55.761 120.69L50.4343 113.943L50.0418 114.253L49.6494 114.563L54.9761 121.31L55.3685 121ZM50.0418 114.253L50.3911 114.611L51.8826 113.155L51.5333 112.797L51.184 112.439L49.6925 113.895L50.0418 114.253ZM51.5333 112.797L51.1414 113.107L57.64 121.31L58.0319 121L58.4238 120.69L51.9252 112.486L51.5333 112.797ZM58.0319 121V120.5H55.3685V121V121.5H58.0319V121ZM61.9625 120.831L61.7496 121.284L61.7528 121.285L61.9625 120.831ZM60.2846 119.402L59.8674 119.678L59.8686 119.679L60.2846 119.402ZM60.1248 115.229L60.5471 115.497L60.5485 115.495L60.1248 115.229ZM63.0634 113.454L63.1704 113.942L63.1738 113.941L63.0634 113.454ZM64.9544 113.116L64.8906 112.621L64.8895 112.621L64.9544 113.116ZM66.9696 112.877L67.0211 113.374L67.0261 113.374L66.9696 112.877ZM68.106 112.584L67.8614 112.148L67.8568 112.15L68.106 112.584ZM67.7509 109.761L67.393 110.11L67.3952 110.112L67.7509 109.761ZM63.2409 109.69L63.5462 110.086L63.2409 109.69ZM62.0424 111.092L61.8743 111.563L62.3038 111.717L62.4959 111.303L62.0424 111.092ZM60.0538 110.382L59.5942 110.185L59.3847 110.674L59.8856 110.853L60.0538 110.382ZM61.4743 108.447L61.7818 108.841L61.7823 108.841L61.4743 108.447ZM63.4274 107.47L63.5534 107.954L63.5562 107.953L63.4274 107.47ZM67.0318 107.346L66.9396 107.837L66.9455 107.838L67.0318 107.346ZM68.6919 107.976L68.4347 108.405L68.4368 108.406L68.6919 107.976ZM70.0325 109.423L69.5945 109.664V109.664L70.0325 109.423ZM70.5652 121V121.5H71.0652V121H70.5652ZM68.47 121H67.97V121.5H68.47V121ZM68.47 119.153H68.97V118.653H68.47V119.153ZM68.3635 119.153V118.653H68.0488L67.9127 118.937L68.3635 119.153ZM67.6532 120.103L68.0099 120.454L67.6532 120.103ZM66.3304 120.964L66.1329 120.505L66.3304 120.964ZM66.7299 118.949L66.4833 118.514L66.4814 118.515L66.7299 118.949ZM68.0261 117.689L67.5926 117.439L67.5904 117.443L68.0261 117.689ZM68.47 114.146H68.97V112.765L68.0859 113.826L68.47 114.146ZM67.8841 114.439L68.0189 114.921L68.0251 114.919L67.8841 114.439ZM66.8542 114.661L66.9303 115.155L66.9364 115.154L66.8542 114.661ZM65.7267 114.821L65.7837 115.318L65.7907 115.317L65.7267 114.821ZM64.8478 114.928L64.9125 115.423L64.9131 115.423L64.8478 114.928ZM63.3208 115.274L63.4772 115.749L63.4807 115.748L63.3208 115.274ZM62.1845 115.975L61.8173 115.636L61.8171 115.636L62.1845 115.975ZM62.5662 118.887L62.2816 119.298L62.2868 119.302L62.5662 118.887ZM64.3152 121.32V120.82C63.5152 120.82 62.8037 120.669 62.1723 120.377L61.9625 120.831L61.7528 121.285C62.53 121.644 63.3869 121.82 64.3152 121.82V121.32ZM61.9625 120.831L62.1754 120.379C61.5499 120.085 61.0623 119.667 60.7006 119.125L60.2846 119.402L59.8686 119.679C60.3356 120.38 60.9666 120.915 61.7496 121.284L61.9625 120.831ZM60.2846 119.402L60.7019 119.126C60.3507 118.595 60.1632 117.937 60.1632 117.129H59.6632H59.1632C59.1632 118.097 59.3899 118.955 59.8674 119.678L60.2846 119.402ZM59.6632 117.129H60.1632C60.1632 116.41 60.3053 115.878 60.5471 115.497L60.1248 115.229L59.7026 114.962C59.3288 115.551 59.1632 116.286 59.1632 117.129H59.6632ZM60.1248 115.229L60.5485 115.495C60.8099 115.078 61.1569 114.753 61.5965 114.515L61.3588 114.075L61.1212 113.635C60.531 113.954 60.0552 114.399 59.7011 114.964L60.1248 115.229ZM61.3588 114.075L61.5965 114.515C62.0669 114.261 62.5906 114.069 63.1704 113.942L63.0634 113.454L62.9564 112.965C62.2933 113.111 61.6806 113.333 61.1212 113.635L61.3588 114.075ZM63.0634 113.454L63.1738 113.941C63.7862 113.803 64.4014 113.693 65.0192 113.612L64.9544 113.116L64.8895 112.621C64.2408 112.706 63.5953 112.821 62.953 112.966L63.0634 113.454ZM64.9544 113.116L65.0181 113.612C65.8448 113.506 66.512 113.427 67.0211 113.374L66.9696 112.877L66.9182 112.379C66.3975 112.433 65.7212 112.514 64.8906 112.621L64.9544 113.116ZM66.9696 112.877L67.0261 113.374C67.5639 113.312 68.0268 113.206 68.3552 113.017L68.106 112.584L67.8568 112.15C67.7117 112.234 67.4171 112.323 66.9132 112.38L66.9696 112.877ZM68.106 112.584L68.3506 113.02C68.787 112.775 68.97 112.346 68.97 111.874H68.47H67.97C67.97 112.076 67.9103 112.12 67.8614 112.148L68.106 112.584ZM68.47 111.874H68.97V111.803H68.47H67.97V111.874H68.47ZM68.47 111.803H68.97C68.97 110.834 68.7027 110.013 68.1066 109.409L67.7509 109.761L67.3952 110.112C67.7579 110.479 67.97 111.019 67.97 111.803H68.47ZM67.7509 109.761L68.1088 109.411C67.5074 108.795 66.6354 108.533 65.5936 108.533V109.033V109.533C66.4812 109.533 67.0474 109.756 67.393 110.11L67.7509 109.761ZM65.5936 109.033V108.533C64.5256 108.533 63.62 108.766 62.9357 109.294L63.2409 109.69L63.5462 110.086C63.9982 109.737 64.6611 109.533 65.5936 109.533V109.033ZM63.2409 109.69L62.9357 109.294C62.3229 109.766 61.8624 110.293 61.5889 110.882L62.0424 111.092L62.4959 111.303C62.6841 110.898 63.0227 110.489 63.5462 110.086L63.2409 109.69ZM62.0424 111.092L62.2106 110.621L60.222 109.911L60.0538 110.382L59.8856 110.853L61.8743 111.563L62.0424 111.092ZM60.0538 110.382L60.5134 110.579C60.8419 109.812 61.2686 109.241 61.7818 108.841L61.4743 108.447L61.1667 108.052C60.4962 108.576 59.9759 109.295 59.5942 110.185L60.0538 110.382ZM61.4743 108.447L61.7823 108.841C62.3286 108.413 62.9181 108.12 63.5534 107.954L63.4274 107.47L63.3013 106.986C62.528 107.188 61.8155 107.545 61.1662 108.053L61.4743 108.447ZM63.4274 107.47L63.5562 107.953C64.2274 107.774 64.8824 107.686 65.5225 107.686V107.186V106.686C64.7895 106.686 64.0478 106.787 63.2985 106.987L63.4274 107.47ZM65.5225 107.186V107.686C65.9216 107.686 66.3928 107.735 66.9396 107.837L67.0318 107.346L67.1239 106.854C66.5344 106.744 65.9994 106.686 65.5225 106.686V107.186ZM67.0318 107.346L66.9455 107.838C67.4553 107.928 67.9511 108.115 68.4347 108.405L68.6919 107.976L68.9492 107.547C68.3674 107.198 67.7565 106.965 67.1181 106.853L67.0318 107.346ZM68.6919 107.976L68.4368 108.406C68.8861 108.673 69.2747 109.084 69.5945 109.664L70.0325 109.423L70.4705 109.182C70.08 108.473 69.575 107.919 68.9471 107.546L68.6919 107.976ZM70.0325 109.423L69.5945 109.664C69.8942 110.209 70.0652 110.98 70.0652 112.016H70.5652H71.0652C71.0652 110.885 70.881 109.928 70.4705 109.182L70.0325 109.423ZM70.5652 112.016H70.0652V121H70.5652H71.0652V112.016H70.5652ZM70.5652 121V120.5H68.47V121V121.5H70.5652V121ZM68.47 121H68.97V119.153H68.47H67.97V121H68.47ZM68.47 119.153V118.653H68.3635V119.153V119.653H68.47V119.153ZM68.3635 119.153L67.9127 118.937C67.8024 119.167 67.605 119.439 67.2966 119.753L67.6532 120.103L68.0099 120.454C68.3644 120.093 68.6404 119.732 68.8142 119.37L68.3635 119.153ZM67.6532 120.103L67.2966 119.753C67.021 120.033 66.639 120.287 66.1329 120.505L66.3304 120.964L66.528 121.424C67.1227 121.168 67.6226 120.848 68.0099 120.454L67.6532 120.103ZM66.3304 120.964L66.1329 120.505C65.6615 120.708 65.0612 120.82 64.3152 120.82V121.32V121.82C65.1553 121.82 65.8985 121.695 66.528 121.424L66.3304 120.964ZM64.6348 119.438V119.938C65.5278 119.938 66.3171 119.762 66.9785 119.383L66.7299 118.949L66.4814 118.515C66.0064 118.787 65.3989 118.938 64.6348 118.938V119.438ZM66.7299 118.949L66.9766 119.384C67.6203 119.019 68.1221 118.537 68.4618 117.934L68.0261 117.689L67.5904 117.443C67.3501 117.87 66.9878 118.228 66.4833 118.514L66.7299 118.949ZM68.0261 117.689L68.4596 117.938C68.7971 117.351 68.97 116.724 68.97 116.064H68.47H67.97C67.97 116.541 67.847 116.997 67.5926 117.439L68.0261 117.689ZM68.47 116.064H68.97V114.146H68.47H67.97V116.064H68.47ZM68.47 114.146L68.0859 113.826C68.1037 113.805 68.1009 113.818 68.0333 113.852C67.9709 113.883 67.8767 113.92 67.743 113.96L67.8841 114.439L68.0251 114.919C68.1932 114.87 68.3476 114.813 68.4805 114.747C68.6083 114.683 68.7475 114.594 68.8541 114.466L68.47 114.146ZM67.8841 114.439L67.7492 113.958C67.4747 114.035 67.1497 114.105 66.772 114.168L66.8542 114.661L66.9364 115.154C67.34 115.087 67.7015 115.01 68.0189 114.921L67.8841 114.439ZM66.8542 114.661L66.7782 114.167C66.3973 114.226 66.0255 114.278 65.6628 114.325L65.7267 114.821L65.7907 115.317C66.1619 115.269 66.5417 115.215 66.9303 115.155L66.8542 114.661ZM65.7267 114.821L65.6697 114.324C65.3074 114.366 65.0114 114.402 64.7826 114.432L64.8478 114.928L64.9131 115.423C65.1341 115.394 65.424 115.359 65.7837 115.318L65.7267 114.821ZM64.8478 114.928L64.7832 114.432C64.2094 114.507 63.6683 114.629 63.161 114.8L63.3208 115.274L63.4807 115.748C63.9204 115.599 64.3972 115.491 64.9125 115.423L64.8478 114.928ZM63.3208 115.274L63.1645 114.799C62.6287 114.975 62.1732 115.251 61.8173 115.636L62.1845 115.975L62.5516 116.315C62.7757 116.072 63.0778 115.88 63.4772 115.749L63.3208 115.274ZM62.1845 115.975L61.8171 115.636C61.4264 116.059 61.2583 116.613 61.2583 117.236H61.7583H62.2583C62.2583 116.793 62.3744 116.507 62.5519 116.314L62.1845 115.975ZM61.7583 117.236H61.2583C61.2583 118.107 61.5915 118.82 62.2816 119.298L62.5662 118.887L62.8508 118.476C62.4638 118.208 62.2583 117.821 62.2583 117.236H61.7583ZM62.5662 118.887L62.2868 119.302C62.9337 119.738 63.7276 119.938 64.6348 119.938V119.438V118.938C63.8729 118.938 63.2878 118.77 62.8457 118.472L62.5662 118.887Z" fill="#3338A0" mask="url(#path-3-outside-1_3_97)"/>
<mask id="path-5-outside-2_3_97" maskUnits="userSpaceOnUse" x="75" y="101" width="63" height="26" fill="black">
<rect fill="white" x="75" y="101" width="63" height="26"/>
<path d="M76.2 121V102.375H82.6C83.8167 102.375 84.8833 102.617 85.8 103.1C86.7167 103.567 87.425 104.233 87.925 105.1C88.4417 105.95 88.7 106.942 88.7 108.075C88.7 109.208 88.4417 110.2 87.925 111.05C87.425 111.9 86.7167 112.567 85.8 113.05C84.9 113.517 83.8333 113.75 82.6 113.75H78.2V121H76.2ZM78.2 111.875H82.7C83.5 111.875 84.2 111.725 84.8 111.425C85.4 111.108 85.8667 110.667 86.2 110.1C86.5333 109.517 86.7 108.833 86.7 108.05C86.7 107.267 86.5333 106.592 86.2 106.025C85.8667 105.458 85.4 105.025 84.8 104.725C84.2 104.408 83.5 104.25 82.7 104.25H78.2V111.875ZM94.8635 121.3C94.0135 121.3 93.2551 121.142 92.5885 120.825C91.9218 120.492 91.3968 120.042 91.0135 119.475C90.6301 118.908 90.4385 118.258 90.4385 117.525C90.4385 116.825 90.5885 116.192 90.8885 115.625C91.1885 115.042 91.6551 114.55 92.2885 114.15C92.9218 113.75 93.7301 113.467 94.7135 113.3L99.9635 112.425V114.125L95.1635 114.925C94.1968 115.092 93.4968 115.4 93.0635 115.85C92.6468 116.3 92.4385 116.833 92.4385 117.45C92.4385 118.05 92.6718 118.558 93.1385 118.975C93.6218 119.392 94.2385 119.6 94.9885 119.6C95.9051 119.6 96.7051 119.408 97.3885 119.025C98.0718 118.625 98.6051 118.092 98.9885 117.425C99.3718 116.758 99.5635 116.017 99.5635 115.2V111.8C99.5635 111 99.2718 110.35 98.6885 109.85C98.1051 109.35 97.3468 109.1 96.4135 109.1C95.5968 109.1 94.8801 109.308 94.2635 109.725C93.6468 110.125 93.1885 110.65 92.8885 111.3L91.1885 110.375C91.4385 109.808 91.8301 109.292 92.3635 108.825C92.9135 108.358 93.5385 107.992 94.2385 107.725C94.9385 107.442 95.6635 107.3 96.4135 107.3C97.3968 107.3 98.2635 107.492 99.0135 107.875C99.7801 108.258 100.372 108.792 100.788 109.475C101.222 110.142 101.438 110.917 101.438 111.8V121H99.5635V118.325L99.8385 118.6C99.6051 119.1 99.2385 119.558 98.7385 119.975C98.2551 120.375 97.6801 120.7 97.0135 120.95C96.3635 121.183 95.6468 121.3 94.8635 121.3ZM102.795 126.5C102.678 126.5 102.52 126.492 102.32 126.475C102.103 126.458 101.928 126.433 101.795 126.4V124.675C102.145 124.725 102.495 124.75 102.845 124.75C103.528 124.75 104.103 124.542 104.57 124.125C105.053 123.708 105.295 123.083 105.295 122.25V107.6H107.17V122.25C107.17 123.167 106.97 123.942 106.57 124.575C106.17 125.208 105.637 125.683 104.97 126C104.32 126.333 103.595 126.5 102.795 126.5ZM105.295 105.125V102.375H107.17V105.125H105.295ZM114.883 121.3C114.033 121.3 113.275 121.142 112.608 120.825C111.941 120.492 111.416 120.042 111.033 119.475C110.65 118.908 110.458 118.258 110.458 117.525C110.458 116.825 110.608 116.192 110.908 115.625C111.208 115.042 111.675 114.55 112.308 114.15C112.941 113.75 113.75 113.467 114.733 113.3L119.983 112.425V114.125L115.183 114.925C114.216 115.092 113.516 115.4 113.083 115.85C112.666 116.3 112.458 116.833 112.458 117.45C112.458 118.05 112.691 118.558 113.158 118.975C113.641 119.392 114.258 119.6 115.008 119.6C115.925 119.6 116.725 119.408 117.408 119.025C118.091 118.625 118.625 118.092 119.008 117.425C119.391 116.758 119.583 116.017 119.583 115.2V111.8C119.583 111 119.291 110.35 118.708 109.85C118.125 109.35 117.366 109.1 116.433 109.1C115.616 109.1 114.9 109.308 114.283 109.725C113.666 110.125 113.208 110.65 112.908 111.3L111.208 110.375C111.458 109.808 111.85 109.292 112.383 108.825C112.933 108.358 113.558 107.992 114.258 107.725C114.958 107.442 115.683 107.3 116.433 107.3C117.416 107.3 118.283 107.492 119.033 107.875C119.8 108.258 120.391 108.792 120.808 109.475C121.241 110.142 121.458 110.917 121.458 111.8V121H119.583V118.325L119.858 118.6C119.625 119.1 119.258 119.558 118.758 119.975C118.275 120.375 117.7 120.7 117.033 120.95C116.383 121.183 115.666 121.3 114.883 121.3ZM125.315 121V102.075H127.19V115.325L126.39 115.2L133.915 107.6H136.34L131.09 112.975L136.815 121H134.565L129.19 113.575L130.39 113.675L126.565 117.625L127.19 116.075V121H125.315Z"/>
</mask>
<path d="M76.2 121V102.375H82.6C83.8167 102.375 84.8833 102.617 85.8 103.1C86.7167 103.567 87.425 104.233 87.925 105.1C88.4417 105.95 88.7 106.942 88.7 108.075C88.7 109.208 88.4417 110.2 87.925 111.05C87.425 111.9 86.7167 112.567 85.8 113.05C84.9 113.517 83.8333 113.75 82.6 113.75H78.2V121H76.2ZM78.2 111.875H82.7C83.5 111.875 84.2 111.725 84.8 111.425C85.4 111.108 85.8667 110.667 86.2 110.1C86.5333 109.517 86.7 108.833 86.7 108.05C86.7 107.267 86.5333 106.592 86.2 106.025C85.8667 105.458 85.4 105.025 84.8 104.725C84.2 104.408 83.5 104.25 82.7 104.25H78.2V111.875ZM94.8635 121.3C94.0135 121.3 93.2551 121.142 92.5885 120.825C91.9218 120.492 91.3968 120.042 91.0135 119.475C90.6301 118.908 90.4385 118.258 90.4385 117.525C90.4385 116.825 90.5885 116.192 90.8885 115.625C91.1885 115.042 91.6551 114.55 92.2885 114.15C92.9218 113.75 93.7301 113.467 94.7135 113.3L99.9635 112.425V114.125L95.1635 114.925C94.1968 115.092 93.4968 115.4 93.0635 115.85C92.6468 116.3 92.4385 116.833 92.4385 117.45C92.4385 118.05 92.6718 118.558 93.1385 118.975C93.6218 119.392 94.2385 119.6 94.9885 119.6C95.9051 119.6 96.7051 119.408 97.3885 119.025C98.0718 118.625 98.6051 118.092 98.9885 117.425C99.3718 116.758 99.5635 116.017 99.5635 115.2V111.8C99.5635 111 99.2718 110.35 98.6885 109.85C98.1051 109.35 97.3468 109.1 96.4135 109.1C95.5968 109.1 94.8801 109.308 94.2635 109.725C93.6468 110.125 93.1885 110.65 92.8885 111.3L91.1885 110.375C91.4385 109.808 91.8301 109.292 92.3635 108.825C92.9135 108.358 93.5385 107.992 94.2385 107.725C94.9385 107.442 95.6635 107.3 96.4135 107.3C97.3968 107.3 98.2635 107.492 99.0135 107.875C99.7801 108.258 100.372 108.792 100.788 109.475C101.222 110.142 101.438 110.917 101.438 111.8V121H99.5635V118.325L99.8385 118.6C99.6051 119.1 99.2385 119.558 98.7385 119.975C98.2551 120.375 97.6801 120.7 97.0135 120.95C96.3635 121.183 95.6468 121.3 94.8635 121.3ZM102.795 126.5C102.678 126.5 102.52 126.492 102.32 126.475C102.103 126.458 101.928 126.433 101.795 126.4V124.675C102.145 124.725 102.495 124.75 102.845 124.75C103.528 124.75 104.103 124.542 104.57 124.125C105.053 123.708 105.295 123.083 105.295 122.25V107.6H107.17V122.25C107.17 123.167 106.97 123.942 106.57 124.575C106.17 125.208 105.637 125.683 104.97 126C104.32 126.333 103.595 126.5 102.795 126.5ZM105.295 105.125V102.375H107.17V105.125H105.295ZM114.883 121.3C114.033 121.3 113.275 121.142 112.608 120.825C111.941 120.492 111.416 120.042 111.033 119.475C110.65 118.908 110.458 118.258 110.458 117.525C110.458 116.825 110.608 116.192 110.908 115.625C111.208 115.042 111.675 114.55 112.308 114.15C112.941 113.75 113.75 113.467 114.733 113.3L119.983 112.425V114.125L115.183 114.925C114.216 115.092 113.516 115.4 113.083 115.85C112.666 116.3 112.458 116.833 112.458 117.45C112.458 118.05 112.691 118.558 113.158 118.975C113.641 119.392 114.258 119.6 115.008 119.6C115.925 119.6 116.725 119.408 117.408 119.025C118.091 118.625 118.625 118.092 119.008 117.425C119.391 116.758 119.583 116.017 119.583 115.2V111.8C119.583 111 119.291 110.35 118.708 109.85C118.125 109.35 117.366 109.1 116.433 109.1C115.616 109.1 114.9 109.308 114.283 109.725C113.666 110.125 113.208 110.65 112.908 111.3L111.208 110.375C111.458 109.808 111.85 109.292 112.383 108.825C112.933 108.358 113.558 107.992 114.258 107.725C114.958 107.442 115.683 107.3 116.433 107.3C117.416 107.3 118.283 107.492 119.033 107.875C119.8 108.258 120.391 108.792 120.808 109.475C121.241 110.142 121.458 110.917 121.458 111.8V121H119.583V118.325L119.858 118.6C119.625 119.1 119.258 119.558 118.758 119.975C118.275 120.375 117.7 120.7 117.033 120.95C116.383 121.183 115.666 121.3 114.883 121.3ZM125.315 121V102.075H127.19V115.325L126.39 115.2L133.915 107.6H136.34L131.09 112.975L136.815 121H134.565L129.19 113.575L130.39 113.675L126.565 117.625L127.19 116.075V121H125.315Z" fill="#FCC61D"/>
<path d="M76.2 121H75.7V121.5H76.2V121ZM76.2 102.375V101.875H75.7V102.375H76.2ZM85.8 103.1L85.5668 103.542L85.5732 103.546L85.8 103.1ZM87.925 105.1L87.4918 105.35L87.4977 105.36L87.925 105.1ZM87.925 111.05L87.4977 110.79L87.494 110.796L87.925 111.05ZM85.8 113.05L86.0302 113.494L86.0332 113.492L85.8 113.05ZM78.2 113.75V113.25H77.7V113.75H78.2ZM78.2 121V121.5H78.7V121H78.2ZM78.2 111.875H77.7V112.375H78.2V111.875ZM84.8 111.425L85.0237 111.872L85.0334 111.867L84.8 111.425ZM86.2 110.1L86.631 110.354L86.6341 110.348L86.2 110.1ZM86.2 106.025L86.631 105.771L86.2 106.025ZM84.8 104.725L84.5666 105.167L84.5764 105.172L84.8 104.725ZM78.2 104.25V103.75H77.7V104.25H78.2ZM76.2 121H76.7V102.375H76.2H75.7V121H76.2ZM76.2 102.375V102.875H82.6V102.375V101.875H76.2V102.375ZM82.6 102.375V102.875C83.7495 102.875 84.7336 103.103 85.5668 103.542L85.8 103.1L86.0332 102.658C85.0331 102.13 83.8838 101.875 82.6 101.875V102.375ZM85.8 103.1L85.5732 103.546C86.4061 103.97 87.0417 104.569 87.4919 105.35L87.925 105.1L88.3581 104.85C87.8083 103.897 87.0272 103.164 86.0268 102.654L85.8 103.1ZM87.925 105.1L87.4977 105.36C87.9605 106.121 88.2 107.02 88.2 108.075H88.7H89.2C89.2 106.863 88.9229 105.779 88.3523 104.84L87.925 105.1ZM88.7 108.075H88.2C88.2 109.13 87.9605 110.029 87.4977 110.79L87.925 111.05L88.3523 111.31C88.9229 110.371 89.2 109.287 89.2 108.075H88.7ZM87.925 111.05L87.494 110.796C87.0436 111.562 86.4057 112.165 85.5668 112.608L85.8 113.05L86.0332 113.492C87.0277 112.968 87.8064 112.238 88.356 111.304L87.925 111.05ZM85.8 113.05L85.5698 112.606C84.7548 113.029 83.7704 113.25 82.6 113.25V113.75V114.25C83.8963 114.25 85.0452 114.005 86.0302 113.494L85.8 113.05ZM82.6 113.75V113.25H78.2V113.75V114.25H82.6V113.75ZM78.2 113.75H77.7V121H78.2H78.7V113.75H78.2ZM78.2 121V120.5H76.2V121V121.5H78.2V121ZM78.2 111.875V112.375H82.7V111.875V111.375H78.2V111.875ZM82.7 111.875V112.375C83.5628 112.375 84.342 112.213 85.0236 111.872L84.8 111.425L84.5764 110.978C84.058 111.237 83.4372 111.375 82.7 111.375V111.875ZM84.8 111.425L85.0334 111.867C85.7127 111.509 86.249 111.003 86.631 110.354L86.2 110.1L85.769 109.846C85.4843 110.33 85.0873 110.708 84.5666 110.983L84.8 111.425ZM86.2 110.1L86.6341 110.348C87.0173 109.677 87.2 108.906 87.2 108.05H86.7H86.2C86.2 108.761 86.0493 109.356 85.7659 109.852L86.2 110.1ZM86.7 108.05H87.2C87.2 107.195 87.0175 106.429 86.631 105.771L86.2 106.025L85.769 106.279C86.0492 106.755 86.2 107.339 86.2 108.05H86.7ZM86.2 106.025L86.631 105.771C86.2476 105.12 85.7081 104.62 85.0236 104.278L84.8 104.725L84.5764 105.172C85.0919 105.43 85.4857 105.797 85.769 106.279L86.2 106.025ZM84.8 104.725L85.0334 104.283C84.3496 103.922 83.5668 103.75 82.7 103.75V104.25V104.75C83.4332 104.75 84.0504 104.895 84.5666 105.167L84.8 104.725ZM82.7 104.25V103.75H78.2V104.25V104.75H82.7V104.25ZM78.2 104.25H77.7V111.875H78.2H78.7V104.25H78.2ZM92.5885 120.825L92.3648 121.272L92.3739 121.277L92.5885 120.825ZM91.0135 119.475L90.5993 119.755L91.0135 119.475ZM90.8885 115.625L91.3304 115.859L91.3331 115.854L90.8885 115.625ZM92.2885 114.15L92.0215 113.727L92.2885 114.15ZM94.7135 113.3L94.6313 112.807L94.6299 112.807L94.7135 113.3ZM99.9635 112.425H100.463V111.835L99.8813 111.932L99.9635 112.425ZM99.9635 114.125L100.046 114.618L100.463 114.549V114.125H99.9635ZM95.1635 114.925L95.0813 114.432L95.0785 114.432L95.1635 114.925ZM93.0635 115.85L92.7032 115.503L92.6966 115.51L93.0635 115.85ZM93.1385 118.975L92.8054 119.348L92.812 119.354L93.1385 118.975ZM97.3885 119.025L97.6331 119.461L97.6411 119.457L97.3885 119.025ZM98.9885 117.425L99.4219 117.674L98.9885 117.425ZM94.2635 109.725L94.5356 110.145L94.5434 110.139L94.2635 109.725ZM92.8885 111.3L92.6495 111.739L93.1186 111.994L93.3425 111.51L92.8885 111.3ZM91.1885 110.375L90.731 110.173L90.5453 110.594L90.9495 110.814L91.1885 110.375ZM92.3635 108.825L92.0399 108.444L92.0342 108.449L92.3635 108.825ZM94.2385 107.725L94.4165 108.192L94.4261 108.188L94.2385 107.725ZM99.0135 107.875L98.7859 108.32L98.7899 108.322L99.0135 107.875ZM100.788 109.475L100.362 109.735L100.365 109.741L100.369 109.747L100.788 109.475ZM101.438 121V121.5H101.938V121H101.438ZM99.5635 121H99.0635V121.5H99.5635V121ZM99.5635 118.325L99.917 117.971L99.0635 117.118V118.325H99.5635ZM99.8385 118.6L100.292 118.811L100.44 118.494L100.192 118.246L99.8385 118.6ZM98.7385 119.975L99.0573 120.36L99.0586 120.359L98.7385 119.975ZM97.0135 120.95L97.1824 121.421L97.189 121.418L97.0135 120.95ZM94.8635 121.3V120.8C94.0764 120.8 93.3932 120.654 92.803 120.373L92.5885 120.825L92.3739 121.277C93.1171 121.63 93.9505 121.8 94.8635 121.8V121.3ZM92.5885 120.825L92.8121 120.378C92.2152 120.079 91.7586 119.684 91.4276 119.195L91.0135 119.475L90.5993 119.755C91.035 120.399 91.6285 120.904 92.3649 121.272L92.5885 120.825ZM91.0135 119.475L91.4276 119.195C91.1043 118.717 90.9385 118.166 90.9385 117.525H90.4385H89.9385C89.9385 118.351 90.156 119.1 90.5993 119.755L91.0135 119.475ZM90.4385 117.525H90.9385C90.9385 116.899 91.072 116.347 91.3304 115.859L90.8885 115.625L90.4466 115.391C90.105 116.036 89.9385 116.751 89.9385 117.525H90.4385ZM90.8885 115.625L91.3331 115.854C91.5868 115.36 91.9867 114.932 92.5555 114.573L92.2885 114.15L92.0215 113.727C91.3236 114.168 90.7902 114.723 90.4438 115.396L90.8885 115.625ZM92.2885 114.15L92.5555 114.573C93.1177 114.218 93.8584 113.952 94.797 113.793L94.7135 113.3L94.6299 112.807C93.6018 112.981 92.7259 113.282 92.0215 113.727L92.2885 114.15ZM94.7135 113.3L94.7957 113.793L100.046 112.918L99.9635 112.425L99.8813 111.932L94.6313 112.807L94.7135 113.3ZM99.9635 112.425H99.4635V114.125H99.9635H100.463V112.425H99.9635ZM99.9635 114.125L99.8813 113.632L95.0813 114.432L95.1635 114.925L95.2457 115.418L100.046 114.618L99.9635 114.125ZM95.1635 114.925L95.0785 114.432C94.0626 114.607 93.2419 114.944 92.7033 115.503L93.0635 115.85L93.4236 116.197C93.7517 115.856 94.331 115.576 95.2484 115.418L95.1635 114.925ZM93.0635 115.85L92.6966 115.51C92.1938 116.053 91.9385 116.708 91.9385 117.45H92.4385H92.9385C92.9385 116.959 93.0998 116.547 93.4304 116.19L93.0635 115.85ZM92.4385 117.45H91.9385C91.9385 118.199 92.2377 118.841 92.8055 119.348L93.1385 118.975L93.4715 118.602C93.1059 118.276 92.9385 117.901 92.9385 117.45H92.4385ZM93.1385 118.975L92.812 119.354C93.4016 119.862 94.1408 120.1 94.9885 120.1V119.6V119.1C94.3362 119.1 93.842 118.921 93.4649 118.596L93.1385 118.975ZM94.9885 119.6V120.1C95.9762 120.1 96.8632 119.893 97.6331 119.461L97.3885 119.025L97.1439 118.589C96.5471 118.924 95.8341 119.1 94.9885 119.1V119.6ZM97.3885 119.025L97.6411 119.457C98.3972 119.014 98.9939 118.419 99.4219 117.674L98.9885 117.425L98.555 117.176C98.2164 117.765 97.7464 118.236 97.1359 118.593L97.3885 119.025ZM98.9885 117.425L99.4219 117.674C99.8516 116.927 100.063 116.099 100.063 115.2H99.5635H99.0635C99.0635 115.935 98.892 116.59 98.555 117.176L98.9885 117.425ZM99.5635 115.2H100.063V111.8H99.5635H99.0635V115.2H99.5635ZM99.5635 111.8H100.063C100.063 110.861 99.7132 110.07 99.0139 109.47L98.6885 109.85L98.3631 110.23C98.8305 110.63 99.0635 111.139 99.0635 111.8H99.5635ZM98.6885 109.85L99.0139 109.47C98.3215 108.877 97.4394 108.6 96.4135 108.6V109.1V109.6C97.2542 109.6 97.8888 109.823 98.3631 110.23L98.6885 109.85ZM96.4135 109.1V108.6C95.5072 108.6 94.6909 108.833 93.9835 109.311L94.2635 109.725L94.5434 110.139C95.0694 109.784 95.6864 109.6 96.4135 109.6V109.1ZM94.2635 109.725L93.9914 109.306C93.2977 109.755 92.7752 110.352 92.4345 111.09L92.8885 111.3L93.3425 111.51C93.6018 110.948 93.9959 110.495 94.5356 110.144L94.2635 109.725ZM92.8885 111.3L93.1275 110.861L91.4275 109.936L91.1885 110.375L90.9495 110.814L92.6495 111.739L92.8885 111.3ZM91.1885 110.375L91.6459 110.577C91.8625 110.086 92.2064 109.627 92.6927 109.201L92.3635 108.825L92.0342 108.449C91.4538 108.957 91.0145 109.531 90.731 110.173L91.1885 110.375ZM92.3635 108.825L92.687 109.206C93.192 108.778 93.7674 108.439 94.4165 108.192L94.2385 107.725L94.0605 107.258C93.3095 107.544 92.6349 107.939 92.04 108.444L92.3635 108.825ZM94.2385 107.725L94.4261 108.188C95.0669 107.929 95.7282 107.8 96.4135 107.8V107.3V106.8C95.5987 106.8 94.8101 106.954 94.0509 107.262L94.2385 107.725ZM96.4135 107.3V107.8C97.3309 107.8 98.1173 107.978 98.7859 108.32L99.0135 107.875L99.241 107.43C98.4097 107.005 97.4627 106.8 96.4135 106.8V107.3ZM99.0135 107.875L98.7899 108.322C99.4788 108.667 99.9973 109.138 100.362 109.735L100.788 109.475L101.215 109.215C100.746 108.445 100.082 107.85 99.2371 107.428L99.0135 107.875ZM100.788 109.475L100.369 109.747C100.744 110.324 100.938 111.002 100.938 111.8H101.438H101.938C101.938 110.831 101.699 109.959 101.208 109.203L100.788 109.475ZM101.438 111.8H100.938V121H101.438H101.938V111.8H101.438ZM101.438 121V120.5H99.5635V121V121.5H101.438V121ZM99.5635 121H100.063V118.325H99.5635H99.0635V121H99.5635ZM99.5635 118.325L99.2099 118.679L99.4849 118.954L99.8385 118.6L100.192 118.246L99.917 117.971L99.5635 118.325ZM99.8385 118.6L99.3854 118.389C99.1882 118.811 98.8719 119.213 98.4184 119.591L98.7385 119.975L99.0586 120.359C99.605 119.904 100.022 119.389 100.292 118.811L99.8385 118.6ZM98.7385 119.975L98.4197 119.59C97.9845 119.95 97.4595 120.249 96.8379 120.482L97.0135 120.95L97.189 121.418C97.9008 121.151 98.5258 120.8 99.0573 120.36L98.7385 119.975ZM97.0135 120.95L96.8445 120.479C96.2555 120.691 95.5969 120.8 94.8635 120.8V121.3V121.8C95.6968 121.8 96.4715 121.676 97.1824 121.421L97.0135 120.95ZM102.32 126.475L102.362 125.977L102.358 125.976L102.32 126.475ZM101.795 126.4H101.295V126.79L101.674 126.885L101.795 126.4ZM101.795 124.675L101.866 124.18L101.295 124.098V124.675H101.795ZM104.57 124.125L104.244 123.746L104.237 123.752L104.57 124.125ZM105.295 107.6V107.1H104.795V107.6H105.295ZM107.17 107.6H107.67V107.1H107.17V107.6ZM106.57 124.575L106.147 124.308L106.57 124.575ZM104.97 126L104.756 125.548L104.749 125.552L104.742 125.555L104.97 126ZM105.295 105.125H104.795V105.625H105.295V105.125ZM105.295 102.375V101.875H104.795V102.375H105.295ZM107.17 102.375H107.67V101.875H107.17V102.375ZM107.17 105.125V105.625H107.67V105.125H107.17ZM102.795 126.5V126C102.699 126 102.556 125.993 102.362 125.977L102.32 126.475L102.279 126.973C102.484 126.99 102.658 127 102.795 127V126.5ZM102.32 126.475L102.358 125.976C102.156 125.961 102.012 125.939 101.916 125.915L101.795 126.4L101.674 126.885C101.845 126.928 102.051 126.956 102.282 126.974L102.32 126.475ZM101.795 126.4H102.295V124.675H101.795H101.295V126.4H101.795ZM101.795 124.675L101.724 125.17C102.098 125.223 102.471 125.25 102.845 125.25V124.75V124.25C102.519 124.25 102.193 124.227 101.866 124.18L101.795 124.675ZM102.845 124.75V125.25C103.639 125.25 104.336 125.004 104.903 124.498L104.57 124.125L104.237 123.752C103.871 124.079 103.418 124.25 102.845 124.25V124.75ZM104.57 124.125L104.897 124.504C105.522 123.965 105.795 123.181 105.795 122.25H105.295H104.795C104.795 122.985 104.585 123.452 104.244 123.746L104.57 124.125ZM105.295 122.25H105.795V107.6H105.295H104.795V122.25H105.295ZM105.295 107.6V108.1H107.17V107.6V107.1H105.295V107.6ZM107.17 107.6H106.67V122.25H107.17H107.67V107.6H107.17ZM107.17 122.25H106.67C106.67 123.093 106.487 123.771 106.147 124.308L106.57 124.575L106.993 124.842C107.454 124.113 107.67 123.24 107.67 122.25H107.17ZM106.57 124.575L106.147 124.308C105.797 124.863 105.335 125.273 104.756 125.548L104.97 126L105.185 126.452C105.938 126.094 106.543 125.554 106.993 124.842L106.57 124.575ZM104.97 126L104.742 125.555C104.169 125.849 103.523 126 102.795 126V126.5V127C103.667 127 104.471 126.818 105.198 126.445L104.97 126ZM105.295 105.125H105.795V102.375H105.295H104.795V105.125H105.295ZM105.295 102.375V102.875H107.17V102.375V101.875H105.295V102.375ZM107.17 102.375H106.67V105.125H107.17H107.67V102.375H107.17ZM107.17 105.125V104.625H105.295V105.125V105.625H107.17V105.125ZM112.608 120.825L112.384 121.272L112.393 121.277L112.608 120.825ZM111.033 119.475L110.619 119.755L111.033 119.475ZM110.908 115.625L111.35 115.859L111.353 115.854L110.908 115.625ZM112.308 114.15L112.041 113.727L112.308 114.15ZM114.733 113.3L114.651 112.807L114.649 112.807L114.733 113.3ZM119.983 112.425H120.483V111.835L119.901 111.932L119.983 112.425ZM119.983 114.125L120.065 114.618L120.483 114.549V114.125H119.983ZM115.183 114.925L115.101 114.432L115.098 114.432L115.183 114.925ZM113.083 115.85L112.723 115.503L112.716 115.51L113.083 115.85ZM113.158 118.975L112.825 119.348L112.832 119.354L113.158 118.975ZM117.408 119.025L117.653 119.461L117.661 119.457L117.408 119.025ZM119.008 117.425L119.441 117.674L119.008 117.425ZM114.283 109.725L114.555 110.145L114.563 110.139L114.283 109.725ZM112.908 111.3L112.669 111.739L113.138 111.994L113.362 111.51L112.908 111.3ZM111.208 110.375L110.751 110.173L110.565 110.594L110.969 110.814L111.208 110.375ZM112.383 108.825L112.059 108.444L112.054 108.449L112.383 108.825ZM114.258 107.725L114.436 108.192L114.446 108.188L114.258 107.725ZM119.033 107.875L118.805 108.32L118.809 108.322L119.033 107.875ZM120.808 109.475L120.381 109.735L120.385 109.741L120.389 109.747L120.808 109.475ZM121.458 121V121.5H121.958V121H121.458ZM119.583 121H119.083V121.5H119.583V121ZM119.583 118.325L119.937 117.971L119.083 117.118V118.325H119.583ZM119.858 118.6L120.311 118.811L120.459 118.494L120.212 118.246L119.858 118.6ZM118.758 119.975L119.077 120.36L119.078 120.359L118.758 119.975ZM117.033 120.95L117.202 121.421L117.209 121.418L117.033 120.95ZM114.883 121.3V120.8C114.096 120.8 113.413 120.654 112.823 120.373L112.608 120.825L112.393 121.277C113.137 121.63 113.97 121.8 114.883 121.8V121.3ZM112.608 120.825L112.832 120.378C112.235 120.079 111.778 119.684 111.447 119.195L111.033 119.475L110.619 119.755C111.055 120.399 111.648 120.904 112.384 121.272L112.608 120.825ZM111.033 119.475L111.447 119.195C111.124 118.717 110.958 118.166 110.958 117.525H110.458H109.958C109.958 118.351 110.175 119.1 110.619 119.755L111.033 119.475ZM110.458 117.525H110.958C110.958 116.899 111.091 116.347 111.35 115.859L110.908 115.625L110.466 115.391C110.125 116.036 109.958 116.751 109.958 117.525H110.458ZM110.908 115.625L111.353 115.854C111.606 115.36 112.006 114.932 112.575 114.573L112.308 114.15L112.041 113.727C111.343 114.168 110.81 114.723 110.463 115.396L110.908 115.625ZM112.308 114.15L112.575 114.573C113.137 114.218 113.878 113.952 114.817 113.793L114.733 113.3L114.649 112.807C113.621 112.981 112.745 113.282 112.041 113.727L112.308 114.15ZM114.733 113.3L114.815 113.793L120.065 112.918L119.983 112.425L119.901 111.932L114.651 112.807L114.733 113.3ZM119.983 112.425H119.483V114.125H119.983H120.483V112.425H119.983ZM119.983 114.125L119.901 113.632L115.101 114.432L115.183 114.925L115.265 115.418L120.065 114.618L119.983 114.125ZM115.183 114.925L115.098 114.432C114.082 114.607 113.261 114.944 112.723 115.503L113.083 115.85L113.443 116.197C113.771 115.856 114.351 115.576 115.268 115.418L115.183 114.925ZM113.083 115.85L112.716 115.51C112.213 116.053 111.958 116.708 111.958 117.45H112.458H112.958C112.958 116.959 113.119 116.547 113.45 116.19L113.083 115.85ZM112.458 117.45H111.958C111.958 118.199 112.257 118.841 112.825 119.348L113.158 118.975L113.491 118.602C113.125 118.276 112.958 117.901 112.958 117.45H112.458ZM113.158 118.975L112.832 119.354C113.421 119.862 114.16 120.1 115.008 120.1V119.6V119.1C114.356 119.1 113.862 118.921 113.484 118.596L113.158 118.975ZM115.008 119.6V120.1C115.996 120.1 116.883 119.893 117.653 119.461L117.408 119.025L117.163 118.589C116.567 118.924 115.854 119.1 115.008 119.1V119.6ZM117.408 119.025L117.661 119.457C118.417 119.014 119.013 118.419 119.441 117.674L119.008 117.425L118.575 117.176C118.236 117.765 117.766 118.236 117.155 118.593L117.408 119.025ZM119.008 117.425L119.441 117.674C119.871 116.927 120.083 116.099 120.083 115.2H119.583H119.083C119.083 115.935 118.912 116.59 118.575 117.176L119.008 117.425ZM119.583 115.2H120.083V111.8H119.583H119.083V115.2H119.583ZM119.583 111.8H120.083C120.083 110.861 119.733 110.07 119.033 109.47L118.708 109.85L118.383 110.23C118.85 110.63 119.083 111.139 119.083 111.8H119.583ZM118.708 109.85L119.033 109.47C118.341 108.877 117.459 108.6 116.433 108.6V109.1V109.6C117.274 109.6 117.908 109.823 118.383 110.23L118.708 109.85ZM116.433 109.1V108.6C115.527 108.6 114.71 108.833 114.003 109.311L114.283 109.725L114.563 110.139C115.089 109.784 115.706 109.6 116.433 109.6V109.1ZM114.283 109.725L114.011 109.306C113.317 109.755 112.795 110.352 112.454 111.09L112.908 111.3L113.362 111.51C113.621 110.948 114.015 110.495 114.555 110.144L114.283 109.725ZM112.908 111.3L113.147 110.861L111.447 109.936L111.208 110.375L110.969 110.814L112.669 111.739L112.908 111.3ZM111.208 110.375L111.665 110.577C111.882 110.086 112.226 109.627 112.712 109.201L112.383 108.825L112.054 108.449C111.473 108.957 111.034 109.531 110.751 110.173L111.208 110.375ZM112.383 108.825L112.706 109.206C113.212 108.778 113.787 108.439 114.436 108.192L114.258 107.725L114.08 107.258C113.329 107.544 112.654 107.939 112.06 108.444L112.383 108.825ZM114.258 107.725L114.446 108.188C115.086 107.929 115.748 107.8 116.433 107.8V107.3V106.8C115.618 106.8 114.83 106.954 114.07 107.262L114.258 107.725ZM116.433 107.3V107.8C117.35 107.8 118.137 107.978 118.805 108.32L119.033 107.875L119.261 107.43C118.429 107.005 117.482 106.8 116.433 106.8V107.3ZM119.033 107.875L118.809 108.322C119.498 108.667 120.017 109.138 120.381 109.735L120.808 109.475L121.235 109.215C120.766 108.445 120.101 107.85 119.257 107.428L119.033 107.875ZM120.808 109.475L120.389 109.747C120.764 110.324 120.958 111.002 120.958 111.8H121.458H121.958C121.958 110.831 121.719 109.959 121.227 109.203L120.808 109.475ZM121.458 111.8H120.958V121H121.458H121.958V111.8H121.458ZM121.458 121V120.5H119.583V121V121.5H121.458V121ZM119.583 121H120.083V118.325H119.583H119.083V121H119.583ZM119.583 118.325L119.229 118.679L119.504 118.954L119.858 118.6L120.212 118.246L119.937 117.971L119.583 118.325ZM119.858 118.6L119.405 118.389C119.208 118.811 118.891 119.213 118.438 119.591L118.758 119.975L119.078 120.359C119.625 119.904 120.042 119.389 120.311 118.811L119.858 118.6ZM118.758 119.975L118.439 119.59C118.004 119.95 117.479 120.249 116.857 120.482L117.033 120.95L117.209 121.418C117.92 121.151 118.545 120.8 119.077 120.36L118.758 119.975ZM117.033 120.95L116.864 120.479C116.275 120.691 115.616 120.8 114.883 120.8V121.3V121.8C115.716 121.8 116.491 121.676 117.202 121.421L117.033 120.95ZM125.315 121H124.815V121.5H125.315V121ZM125.315 102.075V101.575H124.815V102.075H125.315ZM127.19 102.075H127.69V101.575H127.19V102.075ZM127.19 115.325L127.112 115.819L127.69 115.909V115.325H127.19ZM126.39 115.2L126.034 114.848L125.346 115.543L126.312 115.694L126.39 115.2ZM133.915 107.6V107.1H133.706L133.559 107.248L133.915 107.6ZM136.34 107.6L136.697 107.949L137.527 107.1H136.34V107.6ZM131.09 112.975L130.732 112.626L130.44 112.925L130.683 113.265L131.09 112.975ZM136.815 121V121.5H137.786L137.222 120.71L136.815 121ZM134.565 121L134.16 121.293L134.309 121.5H134.565V121ZM129.19 113.575L129.231 113.077L128.146 112.986L128.785 113.868L129.19 113.575ZM130.39 113.675L130.749 114.023L131.483 113.264L130.431 113.177L130.39 113.675ZM126.565 117.625L126.101 117.438L126.924 117.973L126.565 117.625ZM127.19 116.075H127.69L126.726 115.888L127.19 116.075ZM127.19 121V121.5H127.69V121H127.19ZM125.315 121H125.815V102.075H125.315H124.815V121H125.315ZM125.315 102.075V102.575H127.19V102.075V101.575H125.315V102.075ZM127.19 102.075H126.69V115.325H127.19H127.69V102.075H127.19ZM127.19 115.325L127.267 114.831L126.467 114.706L126.39 115.2L126.312 115.694L127.112 115.819L127.19 115.325ZM126.39 115.2L126.745 115.552L134.27 107.952L133.915 107.6L133.559 107.248L126.034 114.848L126.39 115.2ZM133.915 107.6V108.1H136.34V107.6V107.1H133.915V107.6ZM136.34 107.6L135.982 107.251L130.732 112.626L131.09 112.975L131.447 113.324L136.697 107.949L136.34 107.6ZM131.09 112.975L130.683 113.265L136.408 121.29L136.815 121L137.222 120.71L131.497 112.685L131.09 112.975ZM136.815 121V120.5H134.565V121V121.5H136.815V121ZM134.565 121L134.97 120.707L129.595 113.282L129.19 113.575L128.785 113.868L134.16 121.293L134.565 121ZM129.19 113.575L129.148 114.073L130.348 114.173L130.39 113.675L130.431 113.177L129.231 113.077L129.19 113.575ZM130.39 113.675L130.03 113.327L126.205 117.277L126.565 117.625L126.924 117.973L130.749 114.023L130.39 113.675ZM126.565 117.625L127.028 117.812L127.653 116.262L127.19 116.075L126.726 115.888L126.101 117.438L126.565 117.625ZM127.19 116.075H126.69V121H127.19H127.69V116.075H127.19ZM127.19 121V120.5H125.315V121V121.5H127.19V121Z" fill="#FCC61D" mask="url(#path-5-outside-2_3_97)"/>
<path d="M42.6015 86.9263L67 95L67.5 95.5L67.5 97L67 97L59.9998 94.8432L52.9998 93.3432L45.9999 91.8432L38 90.3432C40.9999 88.8432 42 88.3432 42.6015 86.9263Z" fill="#FBC02D"/>
<rect y="15" width="6" height="73" fill="#FBC02D"/>
<path d="M5.99994 88C5.99994 88 -3.50013 82 5.99994 82C15.5 82 19.7132 83.719 28.5 84.5L19.4999 88.5L5.99994 88Z" fill="#FBC02D"/>
<path d="M8.87463 71.1139C8.87463 71.1139 17.7493 72.7278 22.8746 73.6139C28 74.5 36.5 77.5 36.5 77.5C36.5 77.5 34.5 78.5 33.5 79.5C32.5 80.5 30.5 82.5 30.5 82.5L8.87463 79.6139V71.1139Z" fill="#3F51B5"/>
<path d="M9 9H13V69.5L9 69V9Z" fill="#3F51B5"/>
<path d="M13 0.5L15 1L17 1.5V70L13 69.5071V0.5Z" fill="#976A2B"/>
<path d="M13 4.92584L13.0001 2.99997L13.0001 0.499967C13.0001 0.499967 30.1798 3.46265 40.5 7.5C50.1804 11.2871 64 20 64 20L62 21.5C62 21.5 48.1812 13.2659 38.5 10C28.8791 6.75446 13 4.92584 13 4.92584Z" fill="#976A2B"/>
<path d="M16.9999 65.5C16.9999 65.5 24.3615 67.1514 29 68.5C33.7434 69.8791 40.9999 72.5 40.9999 72.5L37.9999 75.5C37.9999 75.5 33.5 73.5714 27.5 72C21.5 70.4286 16.9999 70 16.9999 70L16.9999 65.5Z" fill="#976A2B"/>
<path d="M52.5 76.8438C52.5 76.8438 57.1432 79.8411 60.0001 81.9295C62.8067 83.9812 67 87.4296 67 87.4296L67.0001 89.9295C67.0001 89.9295 63.5001 86.9295 58.5001 83.9295C53.5001 80.9295 50.0001 79.3438 50.0001 79.3438C50.0001 79.3438 50.4804 78.9047 51 78.4296C52 77.5154 52.5 76.8438 52.5 76.8438Z" fill="#976A2B"/>
<path d="M131 0L129 0.503597L127 1.00719V70L131 69.5036V0Z" fill="#976A2B"/>
<path d="M130.801 4.45514L130.8 2.52926L130.8 0.0292636C130.8 0.0292636 113.621 2.99194 103.301 7.0293C93.6201 10.8164 79.8005 19.5293 79.8005 19.5293L81.8005 21.0293C81.8005 21.0293 95.6193 12.7952 105.301 9.5293C114.921 6.28375 130.801 4.45514 130.801 4.45514Z" fill="#976A2B"/>
<path d="M77 88C77 88 89.8591 77.8596 99 73.5C109.265 68.6045 127 65.5 127 65.5V70C127 70 110.416 73.3352 100.5 77.5C90.9874 81.4952 77 90.5 77 90.5V88Z" fill="#976A2B"/>
<path d="M77 92C77 92 93.6833 82.1423 105 78C116.119 73.9302 134.5 71 134.5 71V79.5C134.5 79.5 118.802 80.7744 109 83C96.2934 85.8851 77 94 77 94V92Z" fill="#3F51B5"/>
<rect x="137" y="15" width="6" height="74" fill="#FBC02D"/>
<path d="M77 95C77 95 94.8588 88.0509 106.5 85.5C118.211 82.9338 137 82 137 82V89C137 89 119.249 88.1727 108 89.5C95.8635 90.932 77 97 77 97V95Z" fill="#FBC02D"/>
<path d="M131 9H135L134.5 69L131 69.5V9Z" fill="#3F51B5"/>
<path d="M56.4619 60.4281L59.3253 62.8983L55.3549 67.6368L52.5426 64.9712L56.4619 60.4281Z" fill="#3338A0"/>
<path d="M67.0181 66.04H78.0181L77.5181 97.04C77.5181 97.04 74.556 98.4886 72.5181 98.54C70.2924 98.5961 67.0181 97.04 67.0181 97.04V66.04Z" fill="#3338A0"/>
<circle cx="72" cy="45" r="22" fill="#3338A0"/>
<path d="M67 18C67 18 69.6165 14.5 72 14.5C74.3835 14.5 77 18 77 18V24H67V18Z" fill="#3338A0"/>
<circle cx="72" cy="45" r="17" fill="#FCC61D"/>
<circle cx="72" cy="45" r="13" fill="white"/>
<mask id="path-29-outside-3_3_97" maskUnits="userSpaceOnUse" x="64" y="38" width="10" height="12" fill="black">
<rect fill="white" x="64" y="38" width="10" height="12"/>
<path d="M65.233 49V38.8182H68.6733C69.4688 38.8182 70.1217 38.9541 70.6321 39.2259C71.1425 39.4943 71.5204 39.8639 71.7656 40.3345C72.0109 40.8052 72.1335 41.3404 72.1335 41.9403C72.1335 42.5402 72.0109 43.0722 71.7656 43.5362C71.5204 44.0002 71.1442 44.3648 70.6371 44.63C70.13 44.8918 69.482 45.0227 68.6932 45.0227H65.9091V43.9091H68.6534C69.197 43.9091 69.6345 43.8295 69.9659 43.6705C70.3007 43.5114 70.5426 43.286 70.6918 42.9943C70.8442 42.6993 70.9205 42.348 70.9205 41.9403C70.9205 41.5327 70.8442 41.1764 70.6918 40.8714C70.5393 40.5665 70.2957 40.3312 69.9609 40.1655C69.6262 39.9964 69.1837 39.9119 68.6335 39.9119H66.4659V49H65.233ZM70.0256 44.4261L72.5312 49H71.0994L68.6335 44.4261H70.0256Z"/>
</mask>
<path d="M65.233 49V38.8182H68.6733C69.4688 38.8182 70.1217 38.9541 70.6321 39.2259C71.1425 39.4943 71.5204 39.8639 71.7656 40.3345C72.0109 40.8052 72.1335 41.3404 72.1335 41.9403C72.1335 42.5402 72.0109 43.0722 71.7656 43.5362C71.5204 44.0002 71.1442 44.3648 70.6371 44.63C70.13 44.8918 69.482 45.0227 68.6932 45.0227H65.9091V43.9091H68.6534C69.197 43.9091 69.6345 43.8295 69.9659 43.6705C70.3007 43.5114 70.5426 43.286 70.6918 42.9943C70.8442 42.6993 70.9205 42.348 70.9205 41.9403C70.9205 41.5327 70.8442 41.1764 70.6918 40.8714C70.5393 40.5665 70.2957 40.3312 69.9609 40.1655C69.6262 39.9964 69.1837 39.9119 68.6335 39.9119H66.4659V49H65.233ZM70.0256 44.4261L72.5312 49H71.0994L68.6335 44.4261H70.0256Z" fill="#FCC61D"/>
<path d="M65.233 49H64.933V49.3H65.233V49ZM65.233 38.8182V38.5182H64.933V38.8182H65.233ZM70.6321 39.2259L70.4911 39.4907L70.4924 39.4914L70.6321 39.2259ZM71.7656 40.3345L71.4996 40.4732L71.7656 40.3345ZM71.7656 43.5362L71.5004 43.396H71.5004L71.7656 43.5362ZM70.6371 44.63L70.7747 44.8965L70.7761 44.8958L70.6371 44.63ZM65.9091 45.0227H65.6091V45.3227H65.9091V45.0227ZM65.9091 43.9091V43.6091H65.6091V43.9091H65.9091ZM69.9659 43.6705L69.8371 43.3995L69.8361 43.4L69.9659 43.6705ZM70.6918 42.9943L70.4253 42.8566L70.4247 42.8577L70.6918 42.9943ZM70.6918 40.8714L70.9601 40.7373L70.6918 40.8714ZM69.9609 40.1655L69.8257 40.4333L69.8278 40.4343L69.9609 40.1655ZM66.4659 39.9119V39.6119H66.1659V39.9119H66.4659ZM66.4659 49V49.3H66.7659V49H66.4659ZM70.0256 44.4261L70.2887 44.282L70.2033 44.1261H70.0256V44.4261ZM72.5312 49V49.3H73.0377L72.7944 48.8559L72.5312 49ZM71.0994 49L70.8354 49.1424L70.9203 49.3H71.0994V49ZM68.6335 44.4261V44.1261H68.131L68.3695 44.5685L68.6335 44.4261ZM65.233 49H65.533V38.8182H65.233H64.933V49H65.233ZM65.233 38.8182V39.1182H68.6733V38.8182V38.5182H65.233V38.8182ZM68.6733 38.8182V39.1182C69.4371 39.1182 70.0373 39.249 70.4911 39.4907L70.6321 39.2259L70.7731 38.9611C70.2061 38.6591 69.5004 38.5182 68.6733 38.5182V38.8182ZM70.6321 39.2259L70.4924 39.4914C70.9537 39.734 71.285 40.0614 71.4996 40.4732L71.7656 40.3345L72.0317 40.1959C71.7557 39.6663 71.3313 39.2547 70.7718 38.9603L70.6321 39.2259ZM71.7656 40.3345L71.4996 40.4732C71.7198 40.8957 71.8335 41.3823 71.8335 41.9403H72.1335H72.4335C72.4335 41.2985 72.302 40.7146 72.0317 40.1959L71.7656 40.3345ZM72.1335 41.9403H71.8335C71.8335 42.4984 71.7197 42.981 71.5004 43.396L71.7656 43.5362L72.0309 43.6764C72.302 43.1634 72.4335 42.5821 72.4335 41.9403H72.1335ZM71.7656 43.5362L71.5004 43.396C71.2861 43.8015 70.9564 44.1244 70.4981 44.3641L70.6371 44.63L70.7761 44.8958C71.3319 44.6052 71.7546 44.199 72.0309 43.6764L71.7656 43.5362ZM70.6371 44.63L70.4994 44.3634C70.048 44.5965 69.4514 44.7227 68.6932 44.7227V45.0227V45.3227C69.5126 45.3227 70.212 45.1871 70.7747 44.8965L70.6371 44.63ZM68.6932 45.0227V44.7227H65.9091V45.0227V45.3227H68.6932V45.0227ZM65.9091 45.0227H66.2091V43.9091H65.9091H65.6091V45.0227H65.9091ZM65.9091 43.9091V44.2091H68.6534V43.9091V43.6091H65.9091V43.9091ZM68.6534 43.9091V44.2091C69.2222 44.2091 69.7091 44.1265 70.0957 43.9409L69.9659 43.6705L69.8361 43.4C69.5598 43.5326 69.1718 43.6091 68.6534 43.6091V43.9091ZM69.9659 43.6705L70.0947 43.9414C70.4808 43.7579 70.7758 43.489 70.9589 43.1309L70.6918 42.9943L70.4247 42.8577C70.3095 43.083 70.1205 43.2648 69.8371 43.3995L69.9659 43.6705ZM70.6918 42.9943L70.9583 43.1321C71.1372 42.7859 71.2205 42.3852 71.2205 41.9403H70.9205H70.6205C70.6205 42.3108 70.5513 42.6128 70.4253 42.8566L70.6918 42.9943ZM70.9205 41.9403H71.2205C71.2205 41.4951 71.1371 41.0913 70.9601 40.7373L70.6918 40.8714L70.4234 41.0056C70.5514 41.2615 70.6205 41.5702 70.6205 41.9403H70.9205ZM70.6918 40.8714L70.9601 40.7373C70.7756 40.3683 70.4814 40.0884 70.094 39.8966L69.9609 40.1655L69.8278 40.4343C70.11 40.574 70.303 40.7648 70.4234 41.0056L70.6918 40.8714ZM69.9609 40.1655L70.0962 39.8977C69.7045 39.6999 69.2104 39.6119 68.6335 39.6119V39.9119V40.2119C69.157 40.2119 69.5479 40.293 69.8257 40.4333L69.9609 40.1655ZM68.6335 39.9119V39.6119H66.4659V39.9119V40.2119H68.6335V39.9119ZM66.4659 39.9119H66.1659V49H66.4659H66.7659V39.9119H66.4659ZM66.4659 49V48.7H65.233V49V49.3H66.4659V49ZM70.0256 44.4261L69.7625 44.5703L72.2681 49.1441L72.5312 49L72.7944 48.8559L70.2887 44.282L70.0256 44.4261ZM72.5312 49V48.7H71.0994V49V49.3H72.5312V49ZM71.0994 49L71.3635 48.8576L68.8976 44.2838L68.6335 44.4261L68.3695 44.5685L70.8354 49.1424L71.0994 49ZM68.6335 44.4261V44.7261H70.0256V44.4261V44.1261H68.6335V44.4261Z" fill="#FCC61D" mask="url(#path-29-outside-3_3_97)"/>
<mask id="path-31-outside-4_3_97" maskUnits="userSpaceOnUse" x="73" y="41" width="9" height="13" fill="black">
<rect fill="white" x="73" y="41" width="9" height="13"/>
<path d="M74.0739 52.8636V42.3636H75.2074V43.5767H75.3466C75.4328 43.4441 75.5521 43.2751 75.7045 43.0696C75.8603 42.8608 76.0824 42.6752 76.3707 42.5128C76.6624 42.3471 77.0568 42.2642 77.554 42.2642C78.197 42.2642 78.7637 42.425 79.2543 42.7464C79.7448 43.0679 80.1276 43.5237 80.4027 44.1136C80.6778 44.7036 80.8153 45.3996 80.8153 46.2017C80.8153 47.0104 80.6778 47.7114 80.4027 48.3047C80.1276 48.8946 79.7464 49.352 79.2592 49.6768C78.772 49.9983 78.2102 50.1591 77.5739 50.1591C77.0833 50.1591 76.6906 50.0779 76.3956 49.9155C76.1006 49.7498 75.8736 49.5625 75.7145 49.3537C75.5554 49.1416 75.4328 48.9659 75.3466 48.8267H75.2472V52.8636H74.0739ZM75.2273 46.1818C75.2273 46.7585 75.3118 47.2673 75.4808 47.7081C75.6499 48.1456 75.8968 48.4886 76.2216 48.7372C76.5464 48.9825 76.9441 49.1051 77.4148 49.1051C77.9053 49.1051 78.3146 48.9759 78.6428 48.7173C78.9742 48.4555 79.2228 48.1042 79.3885 47.6634C79.5575 47.2192 79.642 46.7254 79.642 46.1818C79.642 45.6449 79.5592 45.161 79.3935 44.7301C79.2311 44.2959 78.9841 43.9529 78.6527 43.701C78.3246 43.4458 77.9119 43.3182 77.4148 43.3182C76.9375 43.3182 76.5365 43.4392 76.2116 43.6811C75.8868 43.9197 75.6416 44.2545 75.4759 44.6854C75.3101 45.1129 75.2273 45.6117 75.2273 46.1818Z"/>
</mask>
<path d="M74.0739 52.8636V42.3636H75.2074V43.5767H75.3466C75.4328 43.4441 75.5521 43.2751 75.7045 43.0696C75.8603 42.8608 76.0824 42.6752 76.3707 42.5128C76.6624 42.3471 77.0568 42.2642 77.554 42.2642C78.197 42.2642 78.7637 42.425 79.2543 42.7464C79.7448 43.0679 80.1276 43.5237 80.4027 44.1136C80.6778 44.7036 80.8153 45.3996 80.8153 46.2017C80.8153 47.0104 80.6778 47.7114 80.4027 48.3047C80.1276 48.8946 79.7464 49.352 79.2592 49.6768C78.772 49.9983 78.2102 50.1591 77.5739 50.1591C77.0833 50.1591 76.6906 50.0779 76.3956 49.9155C76.1006 49.7498 75.8736 49.5625 75.7145 49.3537C75.5554 49.1416 75.4328 48.9659 75.3466 48.8267H75.2472V52.8636H74.0739ZM75.2273 46.1818C75.2273 46.7585 75.3118 47.2673 75.4808 47.7081C75.6499 48.1456 75.8968 48.4886 76.2216 48.7372C76.5464 48.9825 76.9441 49.1051 77.4148 49.1051C77.9053 49.1051 78.3146 48.9759 78.6428 48.7173C78.9742 48.4555 79.2228 48.1042 79.3885 47.6634C79.5575 47.2192 79.642 46.7254 79.642 46.1818C79.642 45.6449 79.5592 45.161 79.3935 44.7301C79.2311 44.2959 78.9841 43.9529 78.6527 43.701C78.3246 43.4458 77.9119 43.3182 77.4148 43.3182C76.9375 43.3182 76.5365 43.4392 76.2116 43.6811C75.8868 43.9197 75.6416 44.2545 75.4759 44.6854C75.3101 45.1129 75.2273 45.6117 75.2273 46.1818Z" fill="#FCC61D"/>
<path d="M74.0739 52.8636H73.7739V53.1636H74.0739V52.8636ZM74.0739 42.3636V42.0636H73.7739V42.3636H74.0739ZM75.2074 42.3636H75.5074V42.0636H75.2074V42.3636ZM75.2074 43.5767H74.9074V43.8767H75.2074V43.5767ZM75.3466 43.5767V43.8767H75.5094L75.5981 43.7402L75.3466 43.5767ZM75.7045 43.0696L75.4641 42.8902L75.4636 42.8908L75.7045 43.0696ZM76.3707 42.5128L76.518 42.7742L76.5189 42.7736L76.3707 42.5128ZM79.2543 42.7464L79.4187 42.4955L79.2543 42.7464ZM80.4027 44.1136L80.6746 43.9869L80.4027 44.1136ZM80.4027 48.3047L80.6746 48.4315L80.6749 48.4309L80.4027 48.3047ZM79.2592 49.6768L79.4245 49.9272L79.4256 49.9265L79.2592 49.6768ZM76.3956 49.9155L76.2487 50.177L76.2509 50.1783L76.3956 49.9155ZM75.7145 49.3537L75.4745 49.5337L75.4759 49.5355L75.7145 49.3537ZM75.3466 48.8267L75.6017 48.6688L75.5137 48.5267H75.3466V48.8267ZM75.2472 48.8267V48.5267H74.9472V48.8267H75.2472ZM75.2472 52.8636V53.1636H75.5472V52.8636H75.2472ZM75.4808 47.7081L75.2007 47.8155L75.201 47.8162L75.4808 47.7081ZM76.2216 48.7372L76.0393 48.9755L76.0408 48.9766L76.2216 48.7372ZM78.6428 48.7173L78.8284 48.953L78.8287 48.9527L78.6428 48.7173ZM79.3885 47.6634L79.1081 47.5566L79.1077 47.5578L79.3885 47.6634ZM79.3935 44.7301L79.1125 44.8352L79.1135 44.8378L79.3935 44.7301ZM78.6527 43.701L78.4685 43.9378L78.4712 43.9398L78.6527 43.701ZM76.2116 43.6811L76.3893 43.9229L76.3909 43.9217L76.2116 43.6811ZM75.4759 44.6854L75.7556 44.7938L75.7559 44.7931L75.4759 44.6854ZM74.0739 52.8636H74.3739V42.3636H74.0739H73.7739V52.8636H74.0739ZM74.0739 42.3636V42.6636H75.2074V42.3636V42.0636H74.0739V42.3636ZM75.2074 42.3636H74.9074V43.5767H75.2074H75.5074V42.3636H75.2074ZM75.2074 43.5767V43.8767H75.3466V43.5767V43.2767H75.2074V43.5767ZM75.3466 43.5767L75.5981 43.7402C75.6795 43.615 75.7948 43.4515 75.9455 43.2484L75.7045 43.0696L75.4636 42.8908C75.3094 43.0987 75.186 43.2733 75.0951 43.4132L75.3466 43.5767ZM75.7045 43.0696L75.945 43.249C76.07 43.0815 76.2566 42.9214 76.518 42.7742L76.3707 42.5128L76.2235 42.2514C75.9082 42.429 75.6507 42.6401 75.4641 42.8902L75.7045 43.0696ZM76.3707 42.5128L76.5189 42.7736C76.7488 42.643 77.0855 42.5642 77.554 42.5642V42.2642V41.9642C77.0281 41.9642 76.576 42.0511 76.2225 42.2519L76.3707 42.5128ZM77.554 42.2642V42.5642C78.1444 42.5642 78.6528 42.711 79.0898 42.9974L79.2543 42.7464L79.4187 42.4955C78.8746 42.1389 78.2495 41.9642 77.554 41.9642V42.2642ZM79.2543 42.7464L79.0898 42.9974C79.5287 43.285 79.8766 43.6953 80.1308 44.2404L80.4027 44.1136L80.6746 43.9869C80.3786 43.3521 79.9609 42.8509 79.4187 42.4955L79.2543 42.7464ZM80.4027 44.1136L80.1308 44.2404C80.3836 44.7826 80.5153 45.4335 80.5153 46.2017H80.8153H81.1153C81.1153 45.3658 80.972 44.6246 80.6746 43.9869L80.4027 44.1136ZM80.8153 46.2017H80.5153C80.5153 46.9769 80.3835 47.633 80.1305 48.1785L80.4027 48.3047L80.6749 48.4309C80.9721 47.7899 81.1153 47.0439 81.1153 46.2017H80.8153ZM80.4027 48.3047L80.1308 48.1779C79.8763 48.7238 79.5293 49.1362 79.0928 49.4272L79.2592 49.6768L79.4256 49.9265C79.9636 49.5678 80.3789 49.0655 80.6746 48.4315L80.4027 48.3047ZM79.2592 49.6768L79.094 49.4264C78.6602 49.7127 78.157 49.8591 77.5739 49.8591V50.1591V50.4591C78.2634 50.4591 78.8838 50.284 79.4245 49.9272L79.2592 49.6768ZM77.5739 50.1591V49.8591C77.1124 49.8591 76.7753 49.7821 76.5403 49.6527L76.3956 49.9155L76.2509 50.1783C76.6059 50.3737 77.0543 50.4591 77.5739 50.4591V50.1591ZM76.3956 49.9155L76.5425 49.6539C76.2734 49.5027 76.0814 49.3402 75.9531 49.1719L75.7145 49.3537L75.4759 49.5355C75.6658 49.7848 75.9279 49.9968 76.2487 50.177L76.3956 49.9155ZM75.7145 49.3537L75.9545 49.1737C75.7979 48.9649 75.6812 48.7972 75.6017 48.6688L75.3466 48.8267L75.0915 48.9846C75.1843 49.1346 75.3129 49.3182 75.4745 49.5337L75.7145 49.3537ZM75.3466 48.8267V48.5267H75.2472V48.8267V49.1267H75.3466V48.8267ZM75.2472 48.8267H74.9472V52.8636H75.2472H75.5472V48.8267H75.2472ZM75.2472 52.8636V52.5636H74.0739V52.8636V53.1636H75.2472V52.8636ZM75.2273 46.1818H74.9273C74.9273 46.7874 75.016 47.3337 75.2007 47.8155L75.4808 47.7081L75.7609 47.6007C75.6076 47.2008 75.5273 46.7297 75.5273 46.1818H75.2273ZM75.4808 47.7081L75.201 47.8162C75.3869 48.2975 75.6645 48.6886 76.0393 48.9755L76.2216 48.7372L76.4039 48.499C76.1291 48.2887 75.9128 47.9937 75.7607 47.6L75.4808 47.7081ZM76.2216 48.7372L76.0408 48.9766C76.4256 49.2672 76.8895 49.4051 77.4148 49.4051V49.1051V48.8051C76.9988 48.8051 76.6672 48.6978 76.4024 48.4978L76.2216 48.7372ZM77.4148 49.1051V49.4051C77.9604 49.4051 78.4385 49.2602 78.8284 48.953L78.6428 48.7173L78.4571 48.4817C78.1907 48.6915 77.8502 48.8051 77.4148 48.8051V49.1051ZM78.6428 48.7173L78.8287 48.9527C79.2078 48.6533 79.4866 48.2548 79.6693 47.7689L79.3885 47.6634L79.1077 47.5578C78.9589 47.9535 78.7406 48.2577 78.4568 48.4819L78.6428 48.7173ZM79.3885 47.6634L79.6689 47.7701C79.8526 47.2873 79.942 46.7567 79.942 46.1818H79.642H79.342C79.342 46.6941 79.2625 47.1511 79.1081 47.5566L79.3885 47.6634ZM79.642 46.1818H79.942C79.942 45.614 79.8544 45.0928 79.6735 44.6224L79.3935 44.7301L79.1135 44.8378C79.264 45.2292 79.342 45.6758 79.342 46.1818H79.642ZM79.3935 44.7301L79.6745 44.625C79.4945 44.144 79.2158 43.7521 78.8342 43.4621L78.6527 43.701L78.4712 43.9398C78.7525 44.1536 78.9676 44.4479 79.1125 44.8352L79.3935 44.7301ZM78.6527 43.701L78.8369 43.4642C78.4463 43.1604 77.9651 43.0182 77.4148 43.0182V43.3182V43.6182C77.8587 43.6182 78.2028 43.7311 78.4685 43.9378L78.6527 43.701ZM77.4148 43.3182V43.0182C76.8848 43.0182 76.4178 43.1534 76.0324 43.4405L76.2116 43.6811L76.3909 43.9217C76.6551 43.7249 76.9902 43.6182 77.4148 43.6182V43.3182ZM76.2116 43.6811L76.034 43.4393C75.6565 43.7167 75.3791 44.1012 75.1958 44.5777L75.4759 44.6854L75.7559 44.7931C75.904 44.4078 76.1171 44.1228 76.3893 43.9229L76.2116 43.6811ZM75.4759 44.6854L75.1961 44.5769C75.0142 45.0464 74.9273 45.5834 74.9273 46.1818H75.2273H75.5273C75.5273 45.6401 75.6061 45.1795 75.7556 44.7938L75.4759 44.6854Z" fill="#FCC61D" mask="url(#path-31-outside-4_3_97)"/>
</svg>
